<svg width="32" height="32" viewBox="0 0 32 32" fill="none" xmlns="http://www.w3.org/2000/svg">
<path d="M31.0848 11.4943L19.488 20.1535H19.4816L16.5504 22.3423L13.6192 20.1535L2.01599 11.4943L16.5504 0.639893L31.0848 11.4943Z" fill="#C2C2C2"/>
<path d="M27.5712 9.30567V5.19687C27.5712 4.9168 27.46 4.6482 27.2619 4.45016C27.0639 4.25213 26.7953 4.14087 26.5152 4.14087H6.50241C6.22234 4.14087 5.95374 4.25213 5.75571 4.45016C5.55767 4.6482 5.44641 4.9168 5.44641 5.19687V9.30567H27.5712Z" fill="#019F53"/>
<path d="M27.5712 8.32007V22.6881C27.5712 22.9681 27.46 23.2367 27.2619 23.4348C27.0639 23.6328 26.7953 23.7441 26.5152 23.7441H6.50241C6.22234 23.7441 5.95374 23.6328 5.75571 23.4348C5.55767 23.2367 5.44641 22.9681 5.44641 22.6881V8.32007H27.5712Z" fill="white"/>
<path d="M26.0224 18.2017H7.00159V19.0465H26.0224V18.2017Z" fill="#E6E6E6"/>
<path d="M26.0224 15.5903H7.00159V16.4351H26.0224V15.5903Z" fill="#E6E6E6"/>
<path d="M26.0224 12.9729H7.00159V13.8177H26.0224V12.9729Z" fill="#E6E6E6"/>
<path d="M26.0224 10.3616H7.00159V11.2064H26.0224V10.3616Z" fill="#E6E6E6"/>
<path d="M31.0848 11.52V30.1376C31.0833 30.3395 31.0304 30.5378 30.9312 30.7136C30.8801 30.8208 30.8108 30.9182 30.7264 31.0016C30.6409 31.0882 30.5414 31.1596 30.432 31.2128C30.2562 31.3114 30.0576 31.3622 29.856 31.36H3.24479C3.04322 31.3622 2.84461 31.3114 2.66879 31.2128C2.55942 31.1596 2.45987 31.0882 2.37439 31.0016C2.29055 30.9201 2.22128 30.8249 2.16959 30.72C2.07037 30.5442 2.01751 30.3459 2.01599 30.144V11.52L13.3312 19.968L13.6192 20.1792L13.9072 20.3968L16.5504 22.368L19.2 20.3712L19.4752 20.1536L19.7568 19.9424L31.0848 11.52Z" fill="#E2E2E2"/>
<path d="M30.72 31.0016C30.6345 31.0881 30.535 31.1595 30.4256 31.2128C30.2498 31.3114 30.0512 31.3621 29.8496 31.36H3.24479C3.04322 31.3621 2.8446 31.3114 2.66879 31.2128C2.55942 31.1595 2.45987 31.0881 2.37439 31.0016L13.6192 20.1536H19.488L30.72 31.0016Z" fill="#C2C2C2"/>
<path d="M20.7424 5.76001C20.6386 5.76001 20.5371 5.79079 20.4508 5.84845C20.3645 5.90612 20.2972 5.98808 20.2575 6.08398C20.2178 6.17987 20.2074 6.28539 20.2276 6.38719C20.2479 6.48899 20.2979 6.5825 20.3713 6.6559C20.4447 6.72929 20.5382 6.77928 20.64 6.79953C20.7418 6.81978 20.8473 6.80938 20.9432 6.76966C21.0391 6.72994 21.1211 6.66268 21.1787 6.57637C21.2364 6.49007 21.2672 6.38861 21.2672 6.28481C21.2672 6.14562 21.2119 6.01214 21.1135 5.91372C21.015 5.8153 20.8816 5.76001 20.7424 5.76001ZM22.6624 5.76001C22.5232 5.76001 22.3897 5.8153 22.2913 5.91372C22.1929 6.01214 22.1376 6.14562 22.1376 6.28481C22.1376 6.424 22.1929 6.55748 22.2913 6.6559C22.3897 6.75432 22.5232 6.80961 22.6624 6.80961C22.8016 6.80961 22.935 6.75432 23.0335 6.6559C23.1319 6.55748 23.1872 6.424 23.1872 6.28481C23.1872 6.14562 23.1319 6.01214 23.0335 5.91372C22.935 5.8153 22.8016 5.76001 22.6624 5.76001ZM24.5888 5.76001C24.485 5.76001 24.3835 5.79079 24.2972 5.84845C24.2109 5.90612 24.1436 5.98808 24.1039 6.08398C24.0642 6.17987 24.0538 6.28539 24.0741 6.38719C24.0943 6.48899 24.1443 6.5825 24.2177 6.6559C24.2911 6.72929 24.3846 6.77928 24.4864 6.79953C24.5882 6.81978 24.6937 6.80938 24.7896 6.76966C24.8855 6.72994 24.9675 6.66268 25.0251 6.57637C25.0828 6.49007 25.1136 6.38861 25.1136 6.28481C25.1136 6.14562 25.0583 6.01214 24.9599 5.91372C24.8614 5.8153 24.728 5.76001 24.5888 5.76001ZM17.1904 6.70721H7.64156C7.54419 6.69487 7.45466 6.64743 7.38976 6.57379C7.32487 6.50015 7.28906 6.40536 7.28906 6.30721C7.28906 6.20905 7.32487 6.11427 7.38976 6.04063C7.45466 5.96699 7.54419 5.91955 7.64156 5.90721H17.1904C17.2877 5.91955 17.3773 5.96699 17.4422 6.04063C17.5071 6.11427 17.5429 6.20905 17.5429 6.30721C17.5429 6.40536 17.5071 6.50015 17.4422 6.57379C17.3773 6.64743 17.2877 6.69487 17.1904 6.70721Z" fill="white"/>
</svg>
