<svg width="1500" height="1000" viewBox="0 0 1500 1000" fill="none" xmlns="http://www.w3.org/2000/svg">
<path d="M1333.9 300.501L1314.8 393.201L1302.4 381.201L1281.5 396.201L1265.5 376.301L1229.5 402.401L1198.8 351.101L1164.6 371.101L1151 352.401L1107.5 376.901L1094.5 348.901L1124.9 201.301L1288.3 235.001L1333.9 300.501Z" fill="#EBEBEB"/>
<path d="M1288.3 235L1333.9 300.5L1277.2 288.8L1288.3 235Z" fill="#DBDBDB"/>
<path d="M1310.7 411.8L1282.6 547.8L1062.5 502.3L1090.4 367.4L1103.5 395.4L1147 370.9L1160.5 389.6L1194.8 369.6L1225.5 420.9L1261.4 394.8L1277.4 414.7L1298.4 399.8L1310.7 411.8Z" fill="#EBEBEB"/>
<path d="M995.7 395.8L771.4 409.7L753.5 121.8L920.1 111.5L981.2 162.8L995.7 395.8Z" fill="#EBEBEB"/>
<path d="M920.102 111.5L981.202 162.8L923.502 166.3L920.102 111.5Z" fill="#DBDBDB"/>
<path d="M857.9 305.201L857 298.701C854.8 285.201 858.5 270.2 870.2 254.4C880.7 240.5 886.4 230.401 885.8 219.101C885.1 206.301 876.6 198.201 860.8 198.801C851.7 199.301 841.9 202.901 835.9 208.001L829 192.601C836.9 186.101 851 181.301 864.3 180.501C893.1 178.901 907.2 196.001 908.2 215.101C909.2 232.101 900.3 244.9 889.1 259.9C878.8 273.6 875.4 284.801 876.9 297.601L877.5 304.101L857.9 305.201ZM854.3 340.601C853.8 331.301 859.7 324.501 868.5 324.001C877.3 323.501 883.7 329.701 884.2 339.001C884.7 347.701 879.3 354.8 870 355.4C861.2 355.8 854.8 349.401 854.3 340.601Z" fill="#DBDBDB"/>
<path fill-rule="evenodd" clip-rule="evenodd" d="M293.8 263.1C292.9 265.2 293.3 267.5 294.7 269.3C295.033 269.767 295.4 270.233 295.8 270.7C296.133 271.233 296.467 271.767 296.8 272.3C298 274.1 300.1 275.2 302.3 275L309.9 274.3L312.3 298.9L304.7 299.7C302.5 299.9 300.7 301.4 299.8 303.5C299.4 304.633 298.9 305.733 298.3 306.8C297.3 308.8 297.4 311.2 298.7 313L303.2 319.1L283 333.6L278.6 327.4C277.3 325.6 275.1 324.7 272.9 325C271.7 325.2 270.467 325.333 269.2 325.4C267 325.5 265 326.8 264.1 328.8L260.9 335.7L238.3 325.5L241.5 318.6C242.4 316.5 242 314.2 240.7 312.5C240.3 311.967 239.933 311.467 239.6 311C239.2 310.533 238.833 310.033 238.5 309.5C237.3 307.6 235.2 306.5 233 306.7L225.4 307.5L223 282.8L230.5 282.1C232.8 281.9 234.6 280.4 235.4 278.3C235.867 277.167 236.4 276.033 237 274.9C238 273 237.9 270.6 236.6 268.8L232.2 262.6L252.3 248.2L256.7 254.3C258 256.1 260.2 257 262.4 256.7C263.667 256.5 264.9 256.367 266.1 256.3C268.3 256.2 270.3 254.9 271.3 252.9L274.4 246L297 256.2L293.8 263.1ZM255.8 274.3C246.7 280.9 244.6 293.6 251.1 302.7C257.6 311.8 270.3 313.9 279.4 307.3C288.5 300.8 290.6 288.1 284.1 279C277.6 269.9 264.9 267.8 255.8 274.3Z" fill="#EBEBEB"/>
<path fill-rule="evenodd" clip-rule="evenodd" d="M1319.4 588C1320.2 589.4 1321.7 590.1 1323.3 590.1C1323.7 590.034 1324.1 590 1324.5 590C1324.97 590 1325.4 590.034 1325.8 590.1C1327.4 590.1 1328.9 589.4 1329.6 588L1332.3 583.4L1347.3 592.1L1344.7 596.7C1343.9 598.1 1344 599.7 1344.8 601C1345.27 601.734 1345.7 602.5 1346.1 603.3C1346.8 604.7 1348.2 605.6 1349.8 605.6H1355.1V622.9H1349.8C1348.2 622.9 1346.8 623.8 1346.1 625.2C1345.7 626 1345.27 626.767 1344.8 627.5C1344 628.8 1343.9 630.4 1344.7 631.8L1347.3 636.4L1332.3 645.1L1329.6 640.4C1328.9 639.1 1327.4 638.4 1325.8 638.4C1325.4 638.467 1324.97 638.5 1324.5 638.5C1324.1 638.5 1323.7 638.467 1323.3 638.4C1321.7 638.4 1320.2 639.1 1319.4 640.5L1316.8 645.1L1301.7 636.4L1304.4 631.8C1305.2 630.4 1305.1 628.8 1304.2 627.5C1303.73 626.767 1303.3 626 1302.9 625.2C1302.2 623.8 1300.8 622.9 1299.3 622.9H1294V605.6H1299.3C1300.8 605.6 1302.2 604.7 1302.9 603.3C1303.3 602.5 1303.73 601.734 1304.2 601C1305.1 599.7 1305.2 598.1 1304.4 596.7L1301.7 592.1L1316.8 583.4L1319.4 588ZM1310.3 614.2C1310.3 622.1 1316.6 628.5 1324.5 628.5C1332.3 628.5 1338.7 622.1 1338.7 614.2C1338.7 606.4 1332.3 600 1324.5 600C1316.6 600 1310.3 606.4 1310.3 614.2Z" fill="#EBEBEB"/>
<path fill-rule="evenodd" clip-rule="evenodd" d="M345.801 186.601C346.801 187.801 348.401 188.301 349.901 188.101C350.301 187.967 350.734 187.901 351.201 187.901C351.601 187.834 352.001 187.767 352.401 187.701C354.001 187.601 355.401 186.701 356.001 185.201L358.001 180.301L374.101 187.001L372.001 191.901C371.401 193.301 371.701 195.001 372.701 196.201C373.301 196.867 373.834 197.534 374.301 198.201C375.201 199.501 376.701 200.201 378.201 200.001L383.501 199.301L385.701 216.601L380.501 217.201C378.901 217.401 377.601 218.501 377.101 220.001C376.834 220.801 376.501 221.601 376.101 222.401C375.401 223.801 375.601 225.401 376.501 226.701L379.801 230.901L366.001 241.501L362.701 237.201C361.801 236.001 360.201 235.401 358.701 235.701C358.301 235.767 357.867 235.834 357.401 235.901C357.001 235.967 356.567 236.001 356.101 236.001C354.601 236.201 353.201 237.101 352.601 238.501L350.601 243.501L334.501 236.801L336.601 231.901C337.201 230.401 336.901 228.801 335.901 227.601C335.301 226.934 334.767 226.267 334.301 225.601C333.401 224.301 331.901 223.601 330.401 223.801L325.101 224.401L322.801 207.201L328.101 206.501C329.701 206.301 330.901 205.301 331.501 203.801C331.767 203.001 332.101 202.201 332.501 201.401C333.101 200.001 333.001 198.301 332.001 197.101L328.801 192.901L342.601 182.301L345.801 186.601ZM340.101 213.801C341.201 221.601 348.301 227.101 356.101 226.101C363.901 225.101 369.401 217.901 368.401 210.101C367.301 202.301 360.201 196.801 352.401 197.901C344.601 198.901 339.101 206.001 340.101 213.801Z" fill="#EBEBEB"/>
<path d="M239.6 633.601C240.4 614.201 240.1 594.801 238.8 575.501C236.2 535.601 229.7 496.101 220.7 457.201C215.6 435.301 209.3 413.801 202.8 392.301C202.6 391.601 201.6 391.801 201.8 392.501C221.9 468.301 238.4 546.501 237.3 625.301C237 647.301 234.4 669.001 232.3 690.901C232.3 691.501 233.2 691.701 233.4 691.101C237.5 672.401 238.9 652.701 239.6 633.601Z" fill="#EBEBEB"/>
<path d="M201.798 392.5C201.798 392.5 171.298 469.9 178.098 488.1C184.898 506.3 198.998 510.1 198.998 510.1C198.998 510.1 180.298 536.8 193.398 561.8C206.398 586.7 235.398 585.6 237.298 613.9C237.298 613.9 238.898 495.4 201.798 392.5Z" fill="#EBEBEB"/>
<path d="M233.997 565.001C234.063 564.867 234.063 564.734 233.997 564.601C229.697 512.001 220.397 459.501 204.397 408.901C204.297 408.701 204.097 408.801 204.097 408.901C210.197 431.601 215.597 454.301 220.197 477.201C216.197 473.101 210.997 470.801 205.597 469.101C205.497 469.101 205.397 469.201 205.497 469.301C211.197 471.701 216.597 474.501 220.597 479.301C221.463 483.767 222.33 488.267 223.197 492.801C216.297 485.201 206.897 481.401 197.397 477.801C197.297 477.701 197.197 477.901 197.397 478.001C207.197 482.001 216.997 487.201 223.697 495.701C226.03 508.501 228.063 521.367 229.797 534.301C224.797 529.101 218.697 525.601 211.597 523.901C211.397 523.801 211.297 524.201 211.497 524.201C218.797 526.301 224.997 530.401 229.997 536.001C229.997 536.067 230.03 536.101 230.097 536.101C230.697 540.634 231.263 545.201 231.797 549.801C227.997 546.501 223.697 544.001 219.097 542.101C218.897 542.001 218.897 542.201 218.997 542.301C223.697 544.301 227.997 547.201 231.797 550.701C231.797 550.801 231.897 550.801 231.897 550.801C232.397 555.101 232.897 559.501 233.397 563.801C226.397 555.401 217.697 549.301 207.497 545.301C207.297 545.301 207.197 545.601 207.397 545.701C217.297 550.001 226.097 556.801 232.897 565.301C233.097 565.501 233.297 565.501 233.497 565.501C234.163 572.167 234.763 578.834 235.297 585.501C235.297 585.601 235.397 585.601 235.397 585.501C234.997 578.634 234.53 571.801 233.997 565.001Z" fill="white"/>
<path d="M209.497 461.401C204.197 457.801 197.497 456.201 191.197 455.701C190.997 455.701 190.997 455.901 191.197 455.901C197.697 456.901 203.197 459.301 209.297 461.901C209.497 462.001 209.697 461.601 209.497 461.401Z" fill="white"/>
<path d="M213.199 543.4C208.999 540.8 204.199 539.4 199.399 538.7C199.299 538.6 199.299 538.9 199.399 538.9C204.299 539.8 208.599 541.5 212.999 543.7C213.199 543.8 213.399 543.5 213.199 543.4Z" fill="white"/>
<path d="M319.799 489.302C307.099 498.302 294.899 508.602 284.499 520.202C273.399 532.502 265.399 546.602 259.799 562.202C248.199 594.102 241.899 628.602 241.299 662.602C240.999 681.602 242.699 700.402 246.699 719.002C246.899 719.702 247.899 719.502 247.799 718.802C242.799 686.102 242.999 652.802 248.399 620.102C253.599 588.102 261.799 553.302 282.199 527.302C293.299 513.102 307.099 501.902 320.699 490.402C321.499 489.802 320.499 488.802 319.799 489.302Z" fill="#EBEBEB"/>
<path d="M245.801 639.501C245.801 639.501 256.301 621.901 271.501 606.601C286.801 591.401 299.601 580.501 301.601 570.401C303.601 560.401 286.301 552.901 286.301 552.901C286.301 552.901 307.401 556.701 313.201 547.901C319.001 539.001 321.801 487.701 321.801 487.701C321.801 487.701 283.401 515.101 265.501 553.501C247.601 592.001 245.801 639.501 245.801 639.501Z" fill="#EBEBEB"/>
<path d="M308.498 500.801C292.298 516.701 276.098 533.601 266.598 554.501C263.298 561.601 260.498 569.001 258.098 576.601C257.564 578.134 257.064 579.667 256.598 581.201C256.531 581.267 256.498 581.334 256.498 581.401C251.798 597.001 248.498 613.101 245.598 628.801C245.598 628.901 245.798 629.001 245.798 628.901C247.398 620.901 249.298 612.801 251.298 604.701C251.364 604.701 251.431 604.701 251.498 604.701C254.798 603.301 258.098 602.501 261.598 602.101C261.798 602.101 261.798 601.701 261.598 601.701C258.198 601.901 254.864 602.501 251.598 603.501C253.498 596.301 255.498 589.001 257.798 581.901C265.198 580.101 272.898 579.101 280.598 578.901V578.801C272.898 578.401 265.698 579.101 258.198 580.701C258.598 579.434 258.998 578.201 259.398 577.001C264.398 575.901 269.398 574.901 274.498 574.401C274.598 574.401 274.598 574.301 274.498 574.301C269.498 574.401 264.598 574.901 259.698 576.101C261.798 569.901 263.998 563.801 266.498 557.901C268.598 553.001 271.098 548.301 273.798 543.801C277.898 542.901 281.898 542.001 286.098 541.601C286.198 541.601 286.198 541.401 286.098 541.401C282.298 541.101 278.298 541.401 274.598 542.501C276.598 539.234 278.731 536.067 280.998 533.001C289.598 531.101 298.298 529.301 307.198 531.001C307.298 531.001 307.398 530.701 307.198 530.701C298.798 528.501 290.498 529.801 282.198 531.401C283.064 530.201 283.964 529.001 284.898 527.801C290.198 526.201 295.498 525.401 300.998 525.301C301.098 525.301 301.198 525.101 300.998 525.101C295.998 524.601 290.898 525.101 285.998 526.401C293.198 517.601 300.998 509.301 308.798 501.101C309.198 500.701 308.898 500.501 308.498 500.801Z" fill="white"/>
<path d="M308.097 535.802C305.497 535.502 302.997 535.302 300.397 535.602C300.097 535.602 300.097 536.102 300.497 536.102C302.997 536.202 305.497 536.002 307.997 536.102C308.197 536.102 308.297 535.802 308.097 535.802Z" fill="white"/>
<path d="M280.398 585.602C276.398 585.502 272.398 586.602 268.598 588.002C268.498 588.002 268.498 588.202 268.598 588.102C272.598 587.202 276.498 586.802 280.498 586.202C280.798 586.102 280.798 585.602 280.398 585.602Z" fill="white"/>
<path d="M272.1 568.4C270.5 568.3 268.7 568.6 267.1 568.9C266.9 568.9 267 569.1 267.1 569.1C268.8 569.2 270.6 569.2 272.2 568.9C272.5 568.9 272.4 568.4 272.1 568.4Z" fill="white"/>
<path d="M133.2 543.801C145.6 548.101 157.8 553.601 168.9 560.601C180.7 568.001 190.5 577.501 198.7 588.801C215.4 612.001 228.5 638.501 236.8 665.801C241.4 681.101 244.4 696.801 245.4 712.801C245.5 713.401 244.6 713.401 244.5 712.901C241 685.301 233.1 658.301 221.3 633.101C209.6 608.401 194.9 582.101 172.4 565.801C160.2 556.901 146.4 551.001 132.7 544.901C132 544.601 132.5 543.501 133.2 543.801Z" fill="#EBEBEB"/>
<path d="M227.799 648.2C227.799 648.2 215.299 636.4 199.399 627.5C183.499 618.7 170.599 612.9 166.699 605.2C162.799 597.5 174.999 587.5 174.999 587.5C174.999 587.5 158.799 595.5 152.099 589.6C145.399 583.8 131.199 542.9 131.199 542.9C131.199 542.9 168.699 556.2 191.999 583.2C215.399 610.2 227.799 648.2 227.799 648.2Z" fill="#EBEBEB"/>
<path d="M225.899 639.8C207.199 604.7 182.199 572.9 147.999 551.9C147.933 551.9 147.933 551.9 147.999 551.9C156.999 557.7 165.299 564.3 172.999 571.5C166.099 571.3 158.999 572.4 152.899 575.8C152.699 575.8 152.799 576 152.999 576C159.799 573.7 166.399 572.1 173.699 572.5C173.799 572.5 173.799 572.4 173.899 572.4C175.099 573.534 176.299 574.7 177.499 575.9C173.899 576 170.299 576.6 166.799 577.3C166.699 577.3 166.699 577.5 166.799 577.5C170.599 576.7 174.299 576.5 178.099 576.5C184.399 582.8 190.299 589.6 195.799 596.6C193.299 596.2 190.699 596.4 188.299 597.1C188.099 597.2 188.099 597.4 188.299 597.4C191.099 597.1 193.699 597.1 196.399 597.3C197.399 598.567 198.399 599.867 199.399 601.2C191.699 600.7 184.199 601.5 176.699 603.4C176.599 603.4 176.599 603.6 176.699 603.6C184.499 602.1 192.199 601.6 200.099 602.1C200.999 603.3 201.899 604.6 202.899 605.9C198.299 605.8 193.799 606.4 189.299 607.5C189.199 607.5 189.199 607.8 189.399 607.7C193.999 606.7 198.699 606.4 203.399 606.7C207.399 612.234 211.266 617.867 214.999 623.6C212.999 623.2 210.999 623.4 208.999 624C208.899 624 208.999 624.1 209.099 624.1C211.299 623.9 213.299 624.2 215.499 624.4C218.833 629.6 222.033 634.834 225.099 640.1C225.399 640.6 226.099 640.2 225.899 639.8Z" fill="white"/>
<path d="M196.799 610.6C193.099 610.3 189.399 610.9 185.899 612C185.799 612 185.799 612.2 185.899 612.1C189.499 611.5 193.099 611.2 196.699 611C196.999 611 196.999 610.7 196.799 610.6Z" fill="white"/>
<path d="M164.097 567.8C162.497 567.6 160.697 567.9 159.097 568.1C158.897 568.2 158.997 568.4 159.197 568.4C160.797 568.2 162.397 568.3 164.097 568.3C164.397 568.3 164.397 567.9 164.097 567.8Z" fill="white"/>
<path d="M276.098 764.402H191.598L203.698 676.102L206.698 653.502H260.998L263.998 676.102L276.098 764.402Z" fill="#DBDBDB"/>
<path d="M263.999 676.102H203.699L206.699 653.502H260.999L263.999 676.102Z" fill="#C7C7C7"/>
<path d="M268.696 664.801H198.996V645.701H268.696V664.801Z" fill="#DBDBDB"/>
<path d="M137.898 764.4L289.898 763.9L441.998 763.7L745.998 763.4L1050 763.7L1202.1 763.9L1354.1 764.4L1202.1 764.9L1050 765L745.998 765.4L441.998 765L289.898 764.8L137.898 764.4Z" fill="#263238"/>
<path d="M1323.5 850.599C1323.5 885.299 1066.7 913.399 750 913.399C433.3 913.399 176.5 885.299 176.5 850.599C176.5 815.899 433.3 787.699 750 787.699C1066.7 787.699 1323.5 815.899 1323.5 850.599Z" fill="#EBEBEB"/>
<path d="M616.498 840.201C611.798 841.801 478.198 842.201 473.098 839.001C471.198 837.801 469.998 818.401 469.198 794.801C468.998 789.701 468.898 784.501 468.698 779.101L457.898 707.901L547.198 707.301L555.698 778.601L555.298 794.301C555.298 794.301 606.598 817.001 611.798 821.101C616.998 825.201 621.198 838.601 616.498 840.201Z" fill="#EB9481"/>
<path d="M616.499 840.202C611.799 841.802 478.199 842.202 473.099 839.002C470.699 837.502 469.499 809.102 468.699 779.102L555.699 778.602L555.299 794.302C555.299 794.302 606.599 817.002 611.799 821.102C616.999 825.202 621.199 838.602 616.499 840.202Z" fill="white"/>
<path d="M616.499 840.201C611.799 841.801 478.199 842.201 473.099 839.001C471.199 837.801 469.999 818.401 469.199 794.801L555.299 794.301C555.299 794.301 606.599 817.001 611.799 821.101C616.999 825.201 621.199 838.601 616.499 840.201Z" fill="#A6A6A6"/>
<path d="M614.599 834.8C592.199 834.4 501.799 834.6 479.599 835.8C479.399 835.8 479.399 835.901 479.599 836.001C501.799 836.901 592.199 836.001 614.599 835.201C614.999 835.201 614.999 834.8 614.599 834.8Z" fill="#263238"/>
<path d="M603.2 816.3C597.9 816.1 592.7 818.6 589.8 821.8C587 824.9 584.7 829.1 584.8 833.8C584.8 833.9 585.1 833.9 585.1 833.8C586.4 825 594.3 817.3 603.2 816.6C603.4 816.6 603.4 816.3 603.2 816.3Z" fill="#263238"/>
<path d="M563.997 796.5C555.097 796.4 544.697 799.6 539.097 806.9C538.897 807.2 539.297 807.5 539.597 807.4C547.697 803.2 555.397 800 564.197 797.6C564.797 797.4 564.697 796.5 563.997 796.5Z" fill="#263238"/>
<path d="M570.998 799.1C561.998 799 551.598 802.2 546.098 809.6C545.798 809.9 546.198 810.2 546.498 810C554.598 805.8 562.298 802.7 571.098 800.2C571.698 800.1 571.598 799.1 570.998 799.1Z" fill="#263238"/>
<path d="M577.9 801.801C568.9 801.701 558.5 804.901 553 812.301C552.8 812.501 553.2 812.801 553.4 812.701C561.5 808.501 569.2 805.401 578 802.901C578.7 802.701 578.5 801.801 577.9 801.801Z" fill="#263238"/>
<path d="M584.798 804.5C575.798 804.4 565.498 807.6 559.898 814.9C559.698 815.2 560.098 815.5 560.398 815.4C568.498 811.2 576.198 808 584.998 805.6C585.598 805.4 585.498 804.5 584.798 804.5Z" fill="#263238"/>
<path d="M485.198 814.5C475.198 814.6 475.198 830.2 485.298 830.2C495.398 830.1 495.298 814.5 485.198 814.5Z" fill="#263238"/>
<path fill-rule="evenodd" clip-rule="evenodd" d="M573 785.6C568.1 791.9 560.8 795.9 554.4 800.3C553.8 800.8 553 800.2 552.8 799.6C552.7 799.6 552.5 799.5 552.5 799.3C553 791.6 556.1 782.7 560.6 776.4C563.4 772.4 569.1 768.7 573.6 772.5C577.9 776 575.8 782 573 785.6ZM573.3 778.2C572.4 768.5 563.6 776 561.7 779C560.5 780.9 559.4 783 558.5 785C556.4 789.3 555 793.8 553.4 798.3C556.4 795.9 559.6 793.8 562.7 791.6C566.4 788.9 573.9 783.6 573.3 778.2Z" fill="#263238"/>
<path fill-rule="evenodd" clip-rule="evenodd" d="M520.699 793.699C521.299 787.899 527.999 786.599 532.699 787.499C540.399 788.899 548.799 793.199 554.499 798.399C554.599 798.499 554.599 798.699 554.399 798.799C554.699 799.399 554.599 800.299 553.799 800.399C546.099 801.599 538.099 803.899 530.299 802.699C525.699 801.999 519.999 799.199 520.699 793.699ZM541.799 799.899C545.599 799.399 549.299 798.699 553.099 798.299C548.899 796.199 544.699 793.899 540.299 792.199C538.099 791.399 535.899 790.599 533.699 790.099C530.299 789.299 518.699 789.999 524.799 797.599C528.199 801.899 537.299 800.499 541.799 799.899Z" fill="#263238"/>
<path d="M326.598 378.4C326.598 378.4 430.398 554.9 433.198 567.3C437.398 586.3 459.998 774.3 459.998 774.3L567.998 772.4C567.998 772.4 549.398 606.6 531.798 552C519.098 512.7 427.498 382.2 427.498 382.2L326.598 378.4Z" fill="#37474F"/>
<path d="M558.196 755.9C542.696 755.7 487.696 755.1 467.096 757C466.896 757.1 466.996 757.3 467.096 757.3C474.196 758.4 542.696 756.8 558.196 756.3C558.496 756.3 558.496 755.9 558.196 755.9Z" fill="#263238"/>
<path d="M344.297 394.6C351.097 405.3 358.297 415.7 365.297 426.3C372.197 436.8 379.097 447.4 385.997 458.1C399.697 479.4 412.997 500.9 425.997 522.5C432.197 532.7 437.997 542.9 442.197 554C446.397 564.9 449.197 576.3 451.297 587.8C453.397 599.4 454.797 611.1 456.097 622.8C457.497 635.267 458.897 647.734 460.297 660.2C463.163 685.667 465.997 711.134 468.797 736.6C469.197 739.734 469.53 742.867 469.797 746C469.897 746.4 469.097 746.5 468.997 746.1C465.797 720.8 463.197 695.4 460.297 670C458.83 657.4 457.397 644.8 455.997 632.2C454.697 620.4 453.397 608.7 451.597 597C449.797 585.5 447.497 574.1 443.997 563C440.297 551.4 435.197 540.5 428.997 530C416.497 508.4 403.297 487.2 390.097 466.1C376.697 444.7 363.197 423.4 349.297 402.5C347.563 399.9 345.797 397.334 343.997 394.8C343.897 394.6 344.197 394.4 344.297 394.6Z" fill="#263238"/>
<path d="M360.598 850.6C355.698 850.3 228.698 798.8 225.098 793.9C224.965 793.766 224.898 793.466 224.898 793C224.898 788.6 233.698 773.3 241.098 753.2C241.598 752 244.798 746 249.398 738C261.898 715.9 283.998 678.1 283.998 678.1L367.098 711.1L327.298 770.6L321.198 785C321.198 785 360.098 825.3 363.398 831.1C366.698 836.9 365.498 850.9 360.598 850.6Z" fill="#EB9481"/>
<path d="M360.598 850.6C355.698 850.3 228.698 798.8 225.098 793.9C224.965 793.767 224.898 793.467 224.898 793C224.898 788.6 233.698 773.3 241.098 753.2C241.598 752 244.798 746 249.398 738L327.298 770.6L321.198 785C321.198 785 360.098 825.3 363.398 831.1C366.698 836.9 365.498 850.9 360.598 850.6Z" fill="white"/>
<path d="M360.598 850.599C355.698 850.299 228.598 798.799 225.098 793.899C223.798 792.099 229.398 774.699 241.098 753.199L321.198 785.099C321.198 785.099 360.098 825.299 363.398 831.099C366.698 836.899 365.498 850.899 360.598 850.599Z" fill="#A6A6A6"/>
<path d="M360.797 844.9C340.297 836.1 256.397 802.3 235.397 795.2C235.197 795.1 235.097 795.2 235.297 795.3C255.497 804.5 339.697 837.5 360.697 845.2C361.197 845.4 361.297 845.1 360.797 844.9Z" fill="#263238"/>
<path d="M357.196 823.401C352.396 821.301 346.596 821.701 342.796 823.501C339.096 825.301 335.296 828.401 333.696 832.801C333.596 832.901 333.896 833.001 333.896 832.901C338.396 825.201 348.596 821.001 357.096 823.701C357.296 823.801 357.396 823.501 357.196 823.401Z" fill="#263238"/>
<path d="M328.398 790.4C320.098 786.9 309.298 786 301.398 790.7C301.098 790.9 301.298 791.3 301.598 791.3C310.698 790.4 318.998 790.4 328.098 791.4C328.798 791.5 328.998 790.6 328.398 790.4Z" fill="#263238"/>
<path d="M333.796 795.399C325.496 791.999 314.696 791.099 306.796 795.799C306.496 795.999 306.796 796.399 307.096 796.399C316.096 795.499 324.496 795.499 333.496 796.499C334.196 796.599 334.396 795.699 333.796 795.399Z" fill="#263238"/>
<path d="M339.195 800.5C330.995 797.1 320.095 796.1 312.195 800.9C311.895 801.1 312.195 801.5 312.495 801.5C321.595 800.6 329.895 800.6 338.995 801.6C339.595 801.7 339.795 800.8 339.195 800.5Z" fill="#263238"/>
<path d="M344.697 805.599C336.397 802.099 325.597 801.199 317.697 805.899C317.297 806.099 317.597 806.599 317.897 806.499C326.997 805.699 335.297 805.599 344.397 806.699C344.997 806.699 345.197 805.799 344.697 805.599Z" fill="#263238"/>
<path d="M248.595 777.5C239.195 773.8 233.395 788.4 242.795 792.1C252.095 795.8 257.895 781.3 248.595 777.5Z" fill="#263238"/>
<path fill-rule="evenodd" clip-rule="evenodd" d="M340.698 783.699C333.898 787.699 325.598 788.599 317.998 790.299C317.298 790.499 316.798 789.699 316.798 788.999C316.698 788.999 316.598 788.899 316.698 788.699C319.998 781.699 326.198 774.599 332.698 770.399C336.798 767.899 343.498 766.599 346.298 771.799C348.898 776.699 344.698 781.399 340.698 783.699ZM343.898 776.899C346.698 767.599 335.698 771.199 332.798 773.299C330.898 774.599 329.198 776.099 327.498 777.699C323.998 780.899 320.998 784.599 317.898 788.099C321.598 786.999 325.298 786.299 328.998 785.299C333.398 784.199 342.298 782.099 343.898 776.899Z" fill="#263238"/>
<path fill-rule="evenodd" clip-rule="evenodd" d="M289.196 771.499C292.096 766.399 298.696 767.699 302.796 770.299C309.296 774.499 315.496 781.599 318.796 788.599C318.896 788.799 318.796 788.899 318.596 788.899C318.696 789.599 318.196 790.399 317.396 790.199C309.796 788.399 301.496 787.499 294.696 783.499C290.796 781.199 286.496 776.399 289.196 771.499ZM306.496 785.199C310.196 786.099 313.896 786.899 317.596 787.999C314.396 784.399 311.496 780.799 307.996 777.499C306.296 775.999 304.596 774.399 302.696 773.099C299.796 771.099 288.796 767.399 291.596 776.699C293.096 781.899 302.096 784.099 306.496 785.199Z" fill="#263238"/>
<path d="M333.797 767.3L240.797 729.8C240.797 729.8 356.097 560.3 356.897 547.7C357.697 536.5 306.997 439.3 304.997 410.9C302.897 380.3 317.597 356.7 333.797 342L429.697 382.7C429.697 382.7 419.597 398.9 403.597 407.9C403.597 407.9 452.797 520.3 449.997 554.9C447.197 589.7 333.797 767.3 333.797 767.3Z" fill="#37474F"/>
<path d="M337.897 749.6C324.397 743.9 328.397 745.3 314.897 739.7C308.297 736.9 264.797 718.9 258.197 717.4C257.997 717.4 257.897 717.6 258.097 717.7C263.897 721.2 307.597 738.5 314.297 741.1C327.897 746.5 323.997 744.8 337.697 750C337.997 750.1 338.097 749.7 337.897 749.6Z" fill="#263238"/>
<path d="M419.398 405.899C409.398 407.999 399.599 411.599 390.199 415.399C389.799 415.499 389.998 416.099 390.398 415.899C400.198 413.099 410.198 410.399 419.798 406.999C420.598 406.799 420.198 405.699 419.398 405.899Z" fill="#263238"/>
<path d="M407.997 401.899C407.097 403.599 406.297 405.299 405.597 407.099C404.997 408.399 404.297 409.899 404.297 411.399C404.297 411.699 404.697 411.699 404.897 411.599C405.997 410.499 406.597 408.899 407.297 407.499C408.097 405.899 408.997 404.399 409.697 402.699C410.197 401.699 408.597 400.899 407.997 401.899Z" fill="#263238"/>
<path d="M409.199 392.899C409.799 391.433 410.399 389.966 410.999 388.499C411.699 386.999 412.399 385.499 412.899 383.899C412.999 383.699 413.399 383.899 413.299 384.099C412.699 385.599 412.299 387.199 411.899 388.699C411.366 390.233 410.866 391.733 410.399 393.199C409.399 396.099 408.299 398.899 407.099 401.599C408.599 401.599 410.299 401.499 411.699 400.799C413.199 399.999 414.199 398.399 414.899 396.899C415.799 395.199 416.599 393.599 417.399 391.899C418.399 390.099 419.499 388.299 420.099 386.299C420.199 386.099 420.599 386.299 420.499 386.499C418.999 390.599 417.599 394.599 415.399 398.299C414.499 399.799 413.799 401.299 412.099 401.899C410.399 402.499 408.499 402.399 406.699 402.299C406.399 402.299 406.099 402.199 406.199 401.899C407.099 398.899 407.999 395.799 409.199 392.899Z" fill="#263238"/>
<path d="M405.097 411.599C408.497 418.799 411.497 425.999 414.697 433.199C417.797 440.299 420.797 447.399 423.597 454.499C429.297 468.999 434.397 483.699 438.897 498.599C441.164 505.933 443.197 513.333 444.997 520.799C446.897 528.299 448.697 535.899 449.497 543.599C450.297 551.299 449.697 558.899 447.597 566.399C445.397 573.899 442.497 580.499 439.097 587.599C436.997 591.899 436.297 591.399 437.297 589.199C440.197 582.999 447.697 564.199 447.097 548.399C446.897 540.799 445.297 533.299 443.597 525.899C441.797 518.366 439.831 510.866 437.697 503.399C433.397 488.699 428.297 474.299 423.097 459.999C420.197 451.899 417.097 443.999 414.097 435.899C411.197 427.899 408.097 420.599 404.797 411.699C404.697 411.499 404.997 411.399 405.097 411.599Z" fill="#263238"/>
<path d="M334.495 387.699C336.195 387.099 338.495 388.099 340.195 388.399C342.395 388.799 344.595 389.033 346.795 389.099C348.995 389.166 351.162 389.099 353.295 388.899C355.495 388.699 357.695 388.399 359.595 387.199C362.795 385.199 365.395 381.699 367.595 378.699C369.895 375.399 372.395 371.599 373.795 367.799C373.895 367.599 374.195 367.699 374.095 367.999C373.395 370.199 372.895 372.399 371.995 374.599C371.195 376.699 370.095 378.599 368.995 380.499C366.795 384.099 364.395 387.799 360.695 389.899C356.795 392.099 351.895 391.999 347.595 391.699C345.062 391.566 342.562 391.266 340.095 390.799C338.395 390.399 335.395 390.099 334.295 388.599C334.095 388.299 334.195 387.899 334.495 387.699Z" fill="#263238"/>
<path d="M267.296 712.1C282.563 688.966 297.563 665.633 312.296 642.1C327.096 618.6 341.596 594.9 355.896 571C359.296 565.3 363.196 559.6 365.396 553.3C367.796 546.5 366.496 539.8 364.296 533.1C360.296 520.8 355.396 508.8 349.996 497C344.696 485.2 338.896 473.6 333.196 461.9C327.596 450.3 321.596 438.7 317.296 426.6C313.196 414.9 311.696 402.9 314.796 390.9C317.896 378.9 324.696 368.2 331.696 358.2C333.496 355.5 335.396 352.9 337.296 350.3C337.396 350.1 337.696 350.3 337.596 350.5C329.796 360.9 322.296 372 317.796 384.3C315.496 390.3 314.096 396.7 313.896 403.2C313.796 409.7 314.996 416.2 316.896 422.5C320.696 434.7 326.596 446.2 332.196 457.6C337.796 469.3 343.596 480.9 349.096 492.7C354.596 504.5 359.696 516.5 363.896 528.9C365.796 534.4 367.896 540.2 367.796 546.1C367.596 552.5 364.596 558.3 361.396 563.8C347.496 587.5 332.996 610.9 318.396 634.2C303.696 657.6 288.796 680.7 273.596 703.8C271.663 706.666 269.73 709.566 267.796 712.5C267.596 712.8 267.096 712.4 267.296 712.1Z" fill="#263238"/>
<path d="M435.001 274.902C443.701 293.902 487.401 320.102 507.901 322.902C522.601 325.002 567.401 325.702 582.701 323.302C600.701 320.602 587.001 272.102 576.301 273.302C547.101 276.702 522.301 280.502 514.501 280.502C505.001 280.502 453.501 264.002 447.301 261.602C432.101 256.002 430.101 264.202 435.001 274.902Z" fill="#EB9481"/>
<path d="M435.302 280.002C446.302 296.202 482.702 322.702 482.702 322.702L487.702 311.502L504.502 274.502C504.502 274.502 471.002 263.902 449.002 259.202C446.002 258.535 443.369 258.168 441.102 258.102C427.102 257.302 425.802 266.002 435.302 280.002Z" fill="black"/>
<path d="M435.302 280.002C446.302 296.202 482.702 322.702 482.702 322.702L487.702 311.502C474.202 295.702 453.202 271.802 441.102 258.102C427.102 257.302 425.802 266.002 435.302 280.002Z" fill="#263238"/>
<path d="M476.102 315.203C478.902 308.403 491.302 280.903 494.302 275.203C494.502 274.803 494.902 274.803 494.702 275.303C486.902 295.803 479.502 308.803 476.402 315.303C476.302 315.503 476.002 315.403 476.102 315.203Z" fill="#263238"/>
<path d="M571 273.802C588.7 271.502 610.7 267.502 629.3 275.402C633 277.002 634.3 279.702 634.3 279.702C642.7 283.102 643.6 288.102 643.6 288.102C650.5 293.602 650.7 298.902 650.7 298.902C650.7 298.902 660.6 302.902 659.1 309.302C657.4 316.402 644 309.302 634.2 309.902C611.7 311.302 580.1 319.502 573.7 320.602L571 273.802Z" fill="#EB9481"/>
<path d="M609.601 294.801C616.201 294.501 622.701 294.101 629.301 294.701C636.601 295.401 643.501 297.201 650.501 299.001C650.701 299.001 650.801 298.701 650.601 298.601C638.401 293.501 622.601 292.101 609.601 294.501C609.201 294.501 609.201 294.801 609.601 294.801Z" fill="#263238"/>
<path d="M606.799 281.302C613.199 281.402 624.599 281.702 643.599 288.302C643.599 288.302 643.699 288.202 643.599 288.202C631.899 282.202 619.799 280.102 606.799 281.002C606.399 281.102 606.299 281.302 606.799 281.302Z" fill="#263238"/>
<path d="M605.401 274.101C616.401 274.601 623.201 276.401 634.301 279.701C634.301 279.701 634.401 279.601 634.301 279.601C622.101 274.501 617.201 274.001 605.401 273.701C604.901 273.701 605.001 274.101 605.401 274.101Z" fill="#263238"/>
<path d="M607.199 313.303C604.299 314.603 604.999 316.103 610.499 317.403C615.999 318.703 638.599 319.003 637.799 326.903C636.999 334.903 604.999 333.903 596.099 331.103C587.099 328.303 573.699 320.603 573.699 320.603C579.899 319.503 594.899 315.503 607.199 313.303Z" fill="#EB9481"/>
<path d="M458.801 305.201C458.701 308.601 458.301 312.101 457.901 315.601C457.901 315.468 457.934 315.335 458.001 315.201C458.701 313.401 459.301 311.601 460.101 309.801C460.201 309.701 460.301 309.701 460.301 309.901C460.001 311.701 459.301 313.601 458.601 315.401C458.267 316.268 457.901 317.135 457.501 318.001C457.234 319.535 456.967 321.035 456.701 322.501C456.101 325.401 453.401 337.601 452.801 339.601C452.601 340.001 452.101 339.901 452.201 339.501C452.301 337.201 454.601 324.601 455.001 321.701C455.901 316.201 457.101 310.601 458.601 305.201C458.601 305.001 458.801 305.101 458.801 305.201Z" fill="#263238"/>
<path d="M438 396.201C432.6 398.901 425.7 403.201 394.7 397.101C392.767 396.701 390.833 396.201 388.9 395.601C359.8 386.901 325 352.701 323 350.301C323 350.301 369.2 275.401 428.2 251.901C435.5 249.001 447.6 254.601 454.3 261.601C456.7 264.101 461.9 282.401 459.9 297.301C457.9 312.201 443.3 393.401 438 396.201Z" fill="black"/>
<path d="M433.8 296.602C434 298.202 433.9 299.802 433.7 301.402C433.4 302.902 433.1 304.502 432.5 306.002C432.4 304.402 432.5 302.802 432.7 301.202C432.9 299.702 433.2 298.102 433.8 296.602Z" fill="white"/>
<path d="M413.699 347.602C413.899 349.202 413.699 350.802 413.499 352.302C413.299 353.902 412.999 355.402 412.399 356.902C412.199 355.302 412.399 353.802 412.599 352.202C412.799 350.702 413.099 349.102 413.699 347.602Z" fill="white"/>
<path d="M379.499 309.102C379.599 310.702 379.499 312.302 379.299 313.802C379.099 315.402 378.799 316.902 378.199 318.402C377.999 316.802 378.099 315.202 378.299 313.702C378.599 312.102 378.899 310.602 379.499 309.102Z" fill="white"/>
<path d="M447 345.002C447.2 346.602 447.1 348.202 446.9 349.802C446.6 351.302 446.3 352.902 445.7 354.402C445.5 352.702 445.7 351.202 445.9 349.602C446.1 348.102 446.4 346.502 447 345.002Z" fill="white"/>
<path d="M403.098 302.502C404.698 302.302 406.198 302.402 407.798 302.602C409.398 302.902 410.898 303.202 412.398 303.802C410.798 303.902 409.198 303.802 407.698 303.602C406.098 303.402 404.598 303.102 403.098 302.502Z" fill="white"/>
<path d="M364.199 339.302C365.799 339.102 367.399 339.302 368.999 339.502C370.499 339.702 372.099 340.002 373.599 340.602C371.899 340.802 370.399 340.602 368.799 340.502C367.299 340.202 365.699 339.902 364.199 339.302Z" fill="white"/>
<path d="M409.898 379.201C411.498 379.001 413.098 379.101 414.698 379.301C416.198 379.601 417.698 379.901 419.198 380.501C417.598 380.601 416.098 380.501 414.498 380.301C412.998 380.101 411.398 379.801 409.898 379.201Z" fill="white"/>
<path d="M352.297 364.701C353.897 364.501 355.397 364.601 356.997 364.801C358.497 365.101 360.097 365.401 361.597 366.001C359.997 366.201 358.397 366.001 356.897 365.801C355.297 365.601 353.797 365.301 352.297 364.701Z" fill="white"/>
<path d="M433.5 260.802C435.1 260.602 436.7 260.802 438.3 261.002C439.8 261.202 441.4 261.502 442.9 262.102C441.3 262.302 439.7 262.102 438.1 261.902C436.6 261.702 435 261.402 433.5 260.802Z" fill="white"/>
<path d="M422.199 273.602C421.199 274.802 419.999 275.802 418.799 276.802C417.499 277.702 416.199 278.602 414.699 279.202C415.799 278.002 416.999 277.002 418.199 276.002C419.499 275.102 420.799 274.202 422.199 273.602Z" fill="white"/>
<path d="M360.698 309.801C359.598 311.101 358.398 312.101 357.198 313.101C355.898 314.001 354.598 314.901 353.098 315.501C354.198 314.201 355.398 313.201 356.598 312.301C357.898 311.301 359.198 310.401 360.698 309.801Z" fill="white"/>
<path d="M437.6 326.201C436.5 327.401 435.3 328.501 434.1 329.401C432.8 330.401 431.5 331.201 430 331.901C431.1 330.601 432.3 329.601 433.5 328.601C434.8 327.701 436.1 326.801 437.6 326.201Z" fill="white"/>
<path d="M387.799 357.502C386.699 358.802 385.499 359.802 384.299 360.802C382.999 361.702 381.699 362.602 380.199 363.202C381.299 362.002 382.499 360.902 383.699 360.002C384.999 359.102 386.299 358.202 387.799 357.502Z" fill="white"/>
<path d="M456.598 283.301C455.598 284.601 454.398 285.601 453.198 286.601C451.898 287.501 450.598 288.401 449.098 289.001C450.098 287.801 451.298 286.701 452.598 285.801C453.798 284.801 455.098 284.001 456.598 283.301Z" fill="white"/>
<path d="M455.598 319.701C454.298 318.701 453.298 317.501 452.398 316.201C451.398 315.001 450.498 313.701 449.898 312.201C451.198 313.201 452.198 314.401 453.198 315.601C454.098 316.901 454.998 318.201 455.598 319.701Z" fill="white"/>
<path d="M344.598 344.701C343.298 343.701 342.298 342.501 341.398 341.301C340.398 340.001 339.598 338.701 338.898 337.201C340.198 338.201 341.198 339.401 342.198 340.701C343.098 341.901 343.998 343.201 344.598 344.701Z" fill="white"/>
<path d="M442.098 374.502C440.798 373.502 439.798 372.302 438.898 371.102C437.898 369.802 437.098 368.502 436.398 367.002C437.698 368.002 438.698 369.202 439.698 370.502C440.598 371.702 441.498 373.002 442.098 374.502Z" fill="white"/>
<path d="M393.198 289.602C391.998 288.602 390.998 287.402 389.998 286.202C389.098 284.902 388.198 283.602 387.598 282.102C388.798 283.102 389.798 284.302 390.798 285.502C391.698 286.802 392.598 288.102 393.198 289.602Z" fill="white"/>
<path d="M394.098 391.502C392.798 390.402 391.798 389.202 390.898 388.002C389.898 386.702 389.098 385.402 388.398 384.002C389.698 385.002 390.698 386.202 391.698 387.402C392.598 388.702 393.498 390.002 394.098 391.502Z" fill="white"/>
<path d="M402.399 331.402C401.199 330.402 400.099 329.202 399.199 327.902C398.199 326.702 397.399 325.402 396.699 323.902C397.999 324.902 398.999 326.102 399.999 327.302C400.899 328.602 401.799 329.902 402.399 331.402Z" fill="white"/>
<path d="M443.498 281.501C435.898 280.101 428.798 264.501 427.898 254.001C427.898 253.301 431.498 247.601 435.498 240.501C437.898 236.101 440.498 231.201 442.598 226.601C442.998 225.701 445.398 228.801 445.398 228.801L450.798 232.901L468.498 246.501C468.498 246.501 461.398 255.001 457.798 263.101C457.532 263.768 457.332 264.435 457.198 265.101C457.198 265.168 457.165 265.268 457.098 265.401C456.098 269.301 450.698 282.801 443.498 281.501Z" fill="#EB9481"/>
<path d="M457.2 265.101C457.2 265.168 457.167 265.268 457.1 265.401C456.167 265.135 455.134 264.735 454 264.201C434.7 255.101 443.2 229.201 443.2 229.201L450.8 232.901L468.5 246.501C468.5 246.501 461.4 255.001 457.8 263.101C457.533 263.768 457.334 264.435 457.2 265.101Z" fill="#263238"/>
<path d="M488.797 191.201C488.797 191.201 497.697 196.801 497.697 206.801C497.797 216.801 493.797 226.601 492.897 226.901C491.997 227.301 488.797 191.201 488.797 191.201Z" fill="#263238"/>
<path d="M444.897 196.401C439.597 206.901 439.797 240.001 446.497 248.501C456.097 260.801 474.697 265.101 485.897 252.901C496.797 241.001 495.597 197.901 487.997 189.901C476.597 178.001 452.797 180.801 444.897 196.401Z" fill="#EB9481"/>
<path d="M473.097 222.9C473.097 222.8 472.897 223 472.997 223.1C473.097 225.3 472.797 227.9 470.797 228.7C470.797 228.7 470.797 228.9 470.797 228.8C473.297 228.4 473.597 225 473.097 222.9Z" fill="#263238"/>
<path d="M471.096 220.6C467.396 220.4 467.296 227.6 470.696 227.8C473.996 228 474.096 220.7 471.096 220.6Z" fill="#263238"/>
<path d="M485.496 222.799C485.496 222.699 485.596 222.899 485.596 222.999C485.496 225.199 485.796 227.799 487.796 228.599C487.896 228.599 487.896 228.799 487.796 228.699C485.296 228.399 484.996 224.899 485.496 222.799Z" fill="#263238"/>
<path d="M487.495 220.499C491.095 220.199 491.295 227.499 487.995 227.699C484.595 227.899 484.495 220.599 487.495 220.499Z" fill="#263238"/>
<path d="M468.796 215C469.796 214.8 470.596 214.4 471.596 214.1C472.696 213.7 473.596 213.5 474.296 212.5C474.696 212 474.596 211.1 474.096 210.7C472.996 209.7 471.596 209.8 470.296 210.2C468.796 210.7 467.796 211.4 466.996 212.6C466.196 213.8 467.496 215.3 468.796 215Z" fill="#263238"/>
<path d="M489.995 218.201C488.995 218.101 488.095 217.701 487.195 217.401C486.095 217.101 485.095 217.001 484.395 216.101C483.995 215.601 484.095 214.601 484.495 214.201C485.495 213.201 486.995 213.201 488.295 213.501C489.795 213.901 490.795 214.501 491.695 215.701C492.595 216.901 491.395 218.501 489.995 218.201Z" fill="#263238"/>
<path d="M467.997 244.199C468.497 244.799 468.997 245.499 469.897 245.599C470.597 245.699 471.597 245.299 472.297 245.099C472.397 244.999 472.397 245.099 472.397 245.199C471.797 245.999 470.597 246.599 469.497 246.399C468.497 246.199 467.997 245.299 467.797 244.299C467.697 244.199 467.897 244.199 467.997 244.199Z" fill="#263238"/>
<path d="M481.096 234.6C481.096 234.6 481.196 238 480.996 239.5C480.996 239.7 476.596 238.8 471.796 239.9C471.096 240 471.196 239.4 471.996 239.1C473.596 238.3 475.696 237.6 479.796 238C479.996 237.6 479.596 232.8 479.796 232.8C480.696 232.9 482.296 233.6 483.296 234C483.296 227 482.196 220 482.296 213C482.296 212.8 482.696 212.7 482.696 213C484.396 220.2 484.596 228.3 484.796 235.6C484.796 236.5 481.696 234.9 481.096 234.6Z" fill="#263238"/>
<path d="M476.597 238.301C476.597 238.301 474.997 242.301 472.397 243.401C469.397 244.601 468.297 241.801 471.397 239.401C472.997 238.201 476.597 238.301 476.597 238.301Z" fill="#263238"/>
<path d="M473.395 242.7C473.062 242.967 472.729 243.2 472.395 243.4C469.595 244.5 468.495 242.3 470.695 240C472.295 240.1 473.895 240.7 473.395 242.7Z" fill="#FF99BA"/>
<path d="M443.396 224.701C446.996 225.801 451.196 214.801 452.396 210.601C453.496 206.801 454.696 195.001 454.796 194.201C454.996 193.401 470.796 204.701 479.996 202.001C489.196 199.301 495.396 191.001 495.496 187.101C495.596 183.301 484.196 173.501 474.296 173.001C464.396 172.501 450.996 185.101 450.996 185.101C450.996 185.101 455.496 179.601 455.396 179.201C455.196 178.701 448.796 181.301 447.596 185.901C447.596 185.901 448.896 180.101 448.396 180.001C447.896 179.901 442.996 184.801 444.096 188.501C444.096 188.501 438.296 193.501 437.796 199.001C437.296 204.401 439.096 223.301 443.396 224.701Z" fill="#263238"/>
<path d="M486.596 200.002C483.796 201.302 480.896 202.802 477.896 203.202C474.496 203.602 470.996 202.802 467.896 201.602C464.696 200.302 461.796 198.602 459.196 196.402C456.896 194.502 454.796 192.202 452.396 190.502C451.796 190.102 451.096 191.002 451.396 191.602C455.196 197.202 461.796 201.902 468.196 203.902C474.896 206.002 481.196 204.502 486.596 200.102V200.002Z" fill="#263238"/>
<path d="M447.197 223.702C447.197 223.702 441.497 212.202 436.397 214.002C431.297 215.902 434.397 231.802 439.597 234.702C444.897 237.702 447.697 232.902 447.697 232.902L447.197 223.702Z" fill="#EB9481"/>
<path d="M437.399 218.602C437.299 218.502 437.299 218.702 437.399 218.702C440.999 220.902 442.499 224.802 443.299 228.802C442.399 227.102 440.999 226.102 438.799 227.202C438.699 227.302 438.799 227.402 438.899 227.402C440.499 227.302 441.599 227.802 442.499 229.202C443.099 230.202 443.499 231.502 443.899 232.602C443.999 233.002 444.699 232.902 444.599 232.402C445.399 227.402 442.599 219.902 437.399 218.602Z" fill="#263238"/>
<path d="M409.701 275.1C405.801 297.8 430.201 374.1 446.001 388.4C469.401 409.6 512.701 423.5 528.401 428.1C535.201 430 554.201 381.9 547.201 378.7C532.401 372 486.401 357.6 482.001 353.9C477.701 350.2 451.301 312.2 439.501 290.2C423.701 260.7 411.701 263.7 409.701 275.1Z" fill="#EB9481"/>
<path d="M535.601 374.5C535.601 374.5 556.001 379.7 569.201 383.7C576.601 386 588.801 391 593.501 395.1C600.501 401.3 625.601 431.5 618.401 437.8C611.901 443.5 593.601 414.7 593.601 414.7C593.601 414.7 614.601 442.1 605.501 447.5C596.401 452.8 580.001 417.6 580.001 417.6C580.001 417.6 601.001 446.2 590.801 450.3C583.001 453.3 566.401 422.3 566.401 422.3C566.401 422.3 584.201 447 576.401 450.5C567.701 454.4 550.601 426.6 550.601 426.6C529.101 432.2 516.701 426 508.301 420.6C506.301 419.3 535.601 374.5 535.601 374.5Z" fill="#EB9481"/>
<path d="M586.899 404.799C589.499 407.899 592.099 411.099 594.399 414.399C596.699 417.699 598.899 421.199 600.899 424.699C605.799 433.399 607.399 439.599 607.299 439.199C603.899 430.399 595.799 418.299 593.499 414.999C591.199 411.699 589.099 408.199 586.799 404.899C586.699 404.799 586.799 404.699 586.899 404.799Z" fill="#263238"/>
<path d="M574.7 412.9C579.1 416.4 588.4 429.5 592 438.3C592.2 438.6 592 438.6 591.7 438.3C588.9 433.9 577.6 417.1 574.6 412.9C574.5 412.9 574.6 412.8 574.7 412.9Z" fill="#263238"/>
<path d="M562.899 417.898C568.099 422.998 572.399 429.998 575.799 437.998C575.899 438.298 575.599 438.298 575.399 437.898C571.299 431.198 568.099 425.898 562.699 418.098C562.599 417.998 562.799 417.798 562.899 417.898Z" fill="#263238"/>
<path d="M431.9 276.801C413.7 251.001 402.8 260.501 406.4 288.601C409.9 314.801 419 346.001 419 346.001L465.1 323.701C465.1 323.701 443.6 293.301 431.9 276.801Z" fill="black"/>
<path d="M443.101 286.902C443.801 288.402 444.101 289.902 444.401 291.502C444.601 293.002 444.801 294.602 444.701 296.202C444.101 294.702 443.701 293.202 443.401 291.702C443.201 290.102 443.001 288.502 443.101 286.902Z" fill="white"/>
<path d="M415.801 302.601C417.301 302.001 418.801 301.601 420.401 301.301C421.901 301.101 423.501 300.901 425.101 301.001C423.601 301.701 422.101 302.001 420.601 302.301C419.001 302.601 417.401 302.801 415.801 302.601Z" fill="white"/>
<path d="M417.002 262.502C416.402 264.002 415.602 265.302 414.702 266.602C413.802 267.902 412.802 269.102 411.602 270.202C412.202 268.702 413.002 267.302 413.902 266.002C414.802 264.802 415.802 263.502 417.002 262.502Z" fill="white"/>
<path d="M455.9 314.701C455.3 316.201 454.5 317.501 453.6 318.801C452.7 320.101 451.7 321.301 450.5 322.401C451.1 320.901 451.9 319.601 452.8 318.301C453.7 317.001 454.7 315.801 455.9 314.701Z" fill="white"/>
<path d="M424.001 330.402C422.501 329.802 421.201 329.002 419.901 328.102C418.601 327.102 417.401 326.202 416.301 324.902C417.801 325.502 419.201 326.402 420.501 327.202C421.701 328.202 423.001 329.102 424.001 330.402Z" fill="white"/>
<path d="M438.098 284.601C440.498 287.901 443.098 291.201 445.598 294.601C444.932 292.868 444.365 291.168 443.898 289.501C443.898 289.401 443.998 289.301 443.998 289.401C444.498 290.701 445.098 292.001 445.598 293.401C445.798 294.001 446.032 294.634 446.298 295.301C446.365 295.434 446.432 295.568 446.498 295.701C448.398 298.301 450.398 300.901 452.298 303.501C454.598 306.701 456.698 309.901 458.898 313.101C461.198 316.401 463.398 320.301 465.698 323.501C465.998 323.701 461.698 325.501 461.298 325.701C460.898 325.901 460.598 325.501 460.998 325.401C461.398 325.301 464.798 323.201 464.898 323.201C462.698 319.901 460.098 316.901 457.798 313.801C455.498 310.701 453.198 307.501 450.998 304.301C446.498 297.901 442.398 291.101 437.898 284.601C437.898 284.601 437.998 284.501 438.098 284.601Z" fill="#263238"/>
<path d="M407.601 307.101C408.301 308.501 409.001 309.801 409.601 311.201C409.867 311.801 410.134 312.401 410.401 313.001C409.334 308.001 408.301 303.001 407.301 298.001C407.301 297.901 407.401 297.901 407.401 298.001C409.501 306.001 411.601 314.101 413.601 322.301C415.501 330.001 417.701 337.901 418.801 345.801C419.401 345.601 423.001 344.101 423.101 344.301C423.201 344.501 418.401 346.801 418.401 346.601C415.801 338.901 414.101 330.101 412.401 322.101C411.867 319.901 411.367 317.667 410.901 315.401C410.401 314.101 409.801 312.801 409.201 311.401C408.501 310.101 408.001 308.601 407.401 307.201C407.401 307.101 407.501 307.001 407.601 307.101Z" fill="#263238"/>
<path d="M419.8 338.3C426.2 334.7 452.9 320.9 458.9 318.2C459.3 318.1 459.5 318.3 459.1 318.5C440.2 329.8 426.4 335.3 419.9 338.5C419.8 338.6 419.6 338.4 419.8 338.3Z" fill="#263238"/>
<path d="M1152.6 864.1H543.297L631.397 364.4H1240.7L1152.6 864.1Z" fill="black"/>
<path d="M839.898 312.6H640.498L631.398 364.4H844.798L839.898 312.6Z" fill="black"/>
<g opacity="0.1">
<path d="M1152.6 864.1H543.297L631.397 364.4H1240.7L1152.6 864.1Z" fill="black"/>
<path d="M839.898 312.6H640.498L631.398 364.4H844.798L839.898 312.6Z" fill="black"/>
</g>
<path d="M619 333.8C618.2 330.9 618 328 618 325.1C618 322.2 618.2 319.3 619 316.4C619.8 319.3 620 322.2 620 325.1C620 328 619.8 330.9 619 333.8Z" fill="#263238"/>
<path d="M601.298 338.901C599.098 336.801 597.498 334.301 596.098 331.801C594.598 329.301 593.298 326.701 592.598 323.801C594.698 325.901 596.298 328.401 597.798 330.801C599.198 333.401 600.498 336.001 601.298 338.901Z" fill="#263238"/>
<path d="M588.498 352.2C585.598 351.4 582.998 350.1 580.498 348.7C577.998 347.2 575.498 345.6 573.398 343.5C576.298 344.2 578.898 345.5 581.498 347C583.898 348.4 586.398 350.1 588.498 352.2Z" fill="#263238"/>
<path d="M584.099 370.1C581.199 370.9 578.299 371.1 575.399 371.1C572.499 371.1 569.599 370.9 566.699 370.1C569.599 369.3 572.499 369.1 575.399 369.1C578.299 369.1 581.199 369.3 584.099 370.1Z" fill="#263238"/>
<path d="M589.198 387.801C587.098 389.901 584.598 391.601 582.198 393.001C579.598 394.501 576.998 395.801 574.098 396.501C576.198 394.401 578.698 392.801 581.198 391.301C583.698 389.901 586.298 388.601 589.198 387.801Z" fill="#263238"/>
<path d="M602.501 400.6C601.701 403.5 600.401 406.1 599.001 408.6C597.501 411.1 595.901 413.6 593.801 415.7C594.601 412.8 595.801 410.2 597.301 407.6C598.801 405.1 600.401 402.7 602.501 400.6Z" fill="#263238"/>
<path d="M620.398 405C621.198 407.9 621.398 410.8 621.398 413.7C621.398 416.6 621.198 419.5 620.398 422.4C619.598 419.5 619.398 416.6 619.398 413.7C619.398 410.8 619.598 407.9 620.398 405Z" fill="#263238"/>
<path d="M638.098 399.9C640.298 402 641.898 404.4 643.298 406.9C644.798 409.5 646.098 412.1 646.798 415C644.698 412.9 643.098 410.4 641.598 407.9C640.198 405.4 638.898 402.8 638.098 399.9Z" fill="#263238"/>
<path d="M650.898 386.6C653.798 387.4 656.398 388.7 658.898 390.1C661.398 391.6 663.898 393.2 665.998 395.3C663.098 394.5 660.498 393.2 657.898 391.8C655.398 390.3 652.998 388.7 650.898 386.6Z" fill="#263238"/>
<path d="M655.301 368.701C658.201 367.901 661.101 367.701 664.001 367.701C666.901 367.701 669.801 367.901 672.701 368.701C669.801 369.501 666.901 369.701 664.001 369.701C661.101 369.701 658.201 369.501 655.301 368.701Z" fill="#263238"/>
<path d="M650.199 351.001C652.299 348.801 654.699 347.201 657.199 345.801C659.799 344.301 662.399 343.001 665.299 342.301C663.199 344.401 660.699 346.001 658.199 347.501C655.699 348.901 653.099 350.201 650.199 351.001Z" fill="#263238"/>
<path d="M636.898 338.2C637.698 335.3 638.998 332.7 640.398 330.1C641.898 327.6 643.498 325.2 645.598 323.1C644.798 326 643.498 328.6 642.098 331.1C640.598 333.6 638.998 336.1 636.898 338.2Z" fill="#263238"/>
<path d="M1151.7 864.1H541.098L454.398 382.5H1065L1151.7 864.1Z" fill="black"/>
<path d="M691.398 651.499C691.398 665.599 679.998 676.899 665.998 676.899C651.998 676.899 640.598 665.599 640.598 651.499C640.598 637.499 651.998 626.199 665.998 626.199C679.998 626.199 691.398 637.499 691.398 651.499Z" fill="#263238"/>
<path d="M891.999 651.499C891.999 665.599 880.599 676.899 866.599 676.899C852.599 676.899 841.199 665.599 841.199 651.499C841.199 637.499 852.599 626.199 866.599 626.199C880.599 626.199 891.999 637.499 891.999 651.499Z" fill="#263238"/>
<path d="M802.796 680.999L801.396 678.299C801.196 678.099 788.096 653.799 761.696 653.799C737.696 653.799 731.796 676.699 731.596 677.599L730.896 680.499L724.996 679.099L725.696 676.199C725.796 675.899 732.896 647.799 761.696 647.799C791.796 647.799 806.096 674.399 806.696 675.499L808.096 678.199L802.796 680.999Z" fill="#263238"/>
<path d="M1111.2 648.601C1112.53 648.334 1113.83 648.035 1115.1 647.701" stroke="#263238" stroke-width="2" stroke-miterlimit="10"/>
<path d="M1122.8 645.401C1153.4 635.101 1179 611.001 1181.4 582.901C1186.7 520.901 1111.2 486.701 1119 415.001C1126.5 346.701 1198.1 341.801 1226.9 351.301C1258.6 361.701 1247.7 392.201 1219 388.301C1169.2 381.401 1137.9 327.301 1161.5 265.801C1179.2 219.901 1223.3 202.601 1241.2 197.301" stroke="#263238" stroke-width="2" stroke-miterlimit="10" stroke-dasharray="8.01 8.01"/>
<path d="M1245 196.3C1247.5 195.6 1248.9 195.4 1248.9 195.4" stroke="#263238" stroke-width="2" stroke-miterlimit="10"/>
<path d="M1280.6 184.299C1275.5 168.499 1241.4 174.199 1248 194.899C1254.7 215.499 1285.7 200.099 1280.6 184.299Z" fill="#263238"/>
<path d="M1229.5 178C1229.7 171 1239.4 165.7 1253 168.1C1266.6 170.6 1279.5 179.8 1279.5 179.8C1279.5 179.8 1266 188 1252.2 189.5C1238.4 190.9 1229.2 184.9 1229.5 178Z" fill="#EBEBEB"/>
<path d="M1279.5 179.799C1272.4 179.799 1265.3 179.599 1258.3 179.399C1251.2 179.099 1244.1 178.799 1237.1 178.199C1244.1 178.199 1251.2 178.399 1258.3 178.599C1265.3 178.899 1272.4 179.199 1279.5 179.799Z" fill="#263238"/>
<path d="M1243.2 171.799C1245.2 172.699 1247.1 173.899 1249 174.999C1250.9 176.299 1252.7 177.399 1254.5 178.899C1252.4 177.999 1250.5 176.799 1248.6 175.699C1246.8 174.499 1244.9 173.299 1243.2 171.799Z" fill="#263238"/>
<path d="M1261.7 179.1C1259.9 180.7 1258 181.9 1256 183.2C1254 184.5 1252.1 185.7 1249.9 186.7C1251.7 185.2 1253.7 183.9 1255.6 182.6C1257.6 181.4 1259.6 180.1 1261.7 179.1Z" fill="#263238"/>
<path d="M1263.8 175.199C1264.8 175.699 1265.7 176.399 1266.6 176.999C1267.4 177.799 1268.3 178.499 1268.9 179.399C1267.9 178.999 1267 178.299 1266.1 177.599C1265.3 176.899 1264.4 176.199 1263.8 175.199Z" fill="#263238"/>
<path d="M1242.5 219.1C1246.7 224.6 1257.7 223.3 1267.3 213.3C1276.9 203.3 1281.9 188.4 1281.9 188.4C1281.9 188.4 1266.2 189.6 1254.2 196.4C1242.1 203.3 1238.2 213.6 1242.5 219.1Z" fill="#EBEBEB"/>
<path d="M1281.9 188.4C1276.2 192.5 1270.6 196.8 1265 201.1C1259.4 205.5 1253.8 209.8 1248.5 214.4C1254.2 210.3 1259.8 206 1265.4 201.7C1271 197.3 1276.5 193 1281.9 188.4Z" fill="#263238"/>
<path d="M1257.2 216.101C1258.3 214.101 1259.1 212.101 1260 210.001C1260.8 208.001 1261.6 205.901 1262.2 203.701C1261.1 205.701 1260.2 207.701 1259.3 209.801C1258.5 211.801 1257.7 213.901 1257.2 216.101Z" fill="#263238"/>
<path d="M1267.9 199.301C1265.6 199.101 1263.2 199.201 1260.9 199.301C1258.6 199.401 1256.3 199.601 1253.9 200.001C1256.3 200.201 1258.6 200.101 1260.9 200.001C1263.3 199.901 1265.6 199.701 1267.9 199.301Z" fill="#263238"/>
<path d="M1271.9 201.301C1272.4 200.301 1272.8 199.201 1273.1 198.101C1273.3 197.101 1273.6 196.001 1273.6 194.801C1273 195.801 1272.7 196.901 1272.4 197.901C1272.1 199.001 1271.9 200.101 1271.9 201.301Z" fill="#263238"/>
<path d="M1280.6 184.299C1277.5 185.299 1274.1 183.599 1273.1 180.499C1272.1 177.299 1273.8 173.899 1277 172.899C1280.1 171.899 1283.5 173.599 1284.5 176.799C1285.5 179.899 1283.8 183.299 1280.6 184.299Z" fill="#455A64"/>
<path d="M1284.3 195.7C1281.2 196.8 1277.8 195 1276.8 191.9C1275.8 188.7 1277.5 185.3 1280.6 184.3C1283.8 183.3 1287.2 185 1288.2 188.2C1289.2 191.3 1287.5 194.7 1284.3 195.7Z" fill="#455A64"/>
<path d="M628.598 190.6C625.798 218 601.198 237.9 573.898 235C562.798 233.9 552.998 229.2 545.298 222.2L520.398 225.8L532.898 204.3C529.898 196.9 528.598 188.7 529.498 180.3C532.298 152.9 556.898 133 584.198 135.9C611.598 138.7 631.498 163.3 628.598 190.6Z" fill="white"/>
<path fill-rule="evenodd" clip-rule="evenodd" d="M628.599 190.599C627.599 199.699 624.299 208.699 618.599 215.899C617.299 217.799 615.599 219.399 613.999 221.099C612.299 222.599 610.699 224.299 608.799 225.599C605.099 228.399 600.999 230.599 596.799 232.299C592.499 234.099 587.899 234.899 583.299 235.499C580.999 235.599 578.699 235.799 576.399 235.599C574.066 235.533 571.766 235.299 569.499 234.899C560.499 233.199 551.999 229.099 545.099 222.899L520.499 226.699L518.699 226.999L519.599 225.399L531.799 204.199C525.999 190.099 527.399 173.299 535.099 160.199C538.899 153.599 544.299 147.899 550.699 143.599C556.999 139.299 564.399 136.599 571.899 135.599C579.499 134.599 587.299 135.299 594.499 137.699C601.699 140.099 608.299 144.199 613.699 149.499C624.699 159.899 630.199 175.599 628.599 190.599ZM545.099 222.899H545.399L544.899 222.699C544.966 222.766 545.033 222.833 545.099 222.899ZM531.799 204.199C531.866 204.333 531.933 204.466 531.999 204.599V203.799L531.799 204.199ZM628.699 190.599C630.199 175.599 624.499 159.999 613.499 149.699C608.099 144.499 601.399 140.599 594.299 138.299C587.199 136.099 579.499 135.599 572.099 136.699C564.799 137.799 557.599 140.499 551.599 144.799C545.499 149.099 540.299 154.699 536.599 161.099C532.899 167.499 530.899 174.799 530.299 182.199C529.799 189.599 530.999 196.999 533.799 203.899L533.999 204.299L533.799 204.699L522.099 224.699L545.299 221.399H545.599L545.899 221.599C552.499 227.799 560.799 232.099 569.699 233.899C571.966 234.366 574.233 234.633 576.499 234.699C578.799 234.999 580.999 234.799 583.299 234.699C587.799 234.299 592.399 233.499 596.599 231.799C600.899 230.199 604.999 228.099 608.699 225.299C610.599 224.099 612.199 222.399 613.899 220.899C615.499 219.199 617.099 217.699 618.499 215.799C624.199 208.599 627.599 199.699 628.699 190.599ZM522.099 224.699L520.299 224.899L521.199 226.299L522.099 224.699Z" fill="#263238"/>
<path d="M554.699 208.699C554.699 205.699 556.699 203.599 559.599 203.599C562.499 203.599 564.399 205.699 564.399 208.699C564.399 211.599 562.499 213.799 559.599 213.799C556.699 213.799 554.699 211.599 554.699 208.699ZM556.699 196.899L555.599 157.199H563.499L562.399 196.899H556.699Z" fill="black"/>
<path d="M573.699 208.699C573.699 205.699 575.799 203.599 578.599 203.599C581.499 203.599 583.399 205.699 583.399 208.699C583.399 211.599 581.499 213.799 578.599 213.799C575.699 213.799 573.699 211.599 573.699 208.699ZM575.799 196.899L574.599 157.199H582.499L581.399 196.899H575.799Z" fill="black"/>
<path d="M592.699 208.699C592.699 205.699 594.799 203.599 597.599 203.599C600.599 203.599 602.499 205.699 602.499 208.699C602.499 211.599 600.599 213.799 597.599 213.799C594.699 213.799 592.699 211.599 592.699 208.699ZM594.799 196.899L593.599 157.199H601.499L600.399 196.899H594.799Z" fill="black"/>
<path d="M895.189 314.636V343H890.01L877.67 325.148H877.462V343H871.465V314.636H876.728L888.971 332.474H889.22V314.636H895.189ZM926.209 328.818C926.209 331.911 925.622 334.543 924.45 336.712C923.286 338.882 921.698 340.539 919.685 341.684C917.682 342.82 915.429 343.388 912.927 343.388C910.406 343.388 908.144 342.815 906.141 341.67C904.137 340.526 902.554 338.868 901.39 336.699C900.227 334.529 899.645 331.902 899.645 328.818C899.645 325.725 900.227 323.094 901.39 320.924C902.554 318.754 904.137 317.102 906.141 315.966C908.144 314.821 910.406 314.249 912.927 314.249C915.429 314.249 917.682 314.821 919.685 315.966C921.698 317.102 923.286 318.754 924.45 320.924C925.622 323.094 926.209 325.725 926.209 328.818ZM920.129 328.818C920.129 326.815 919.829 325.125 919.228 323.749C918.638 322.374 917.802 321.33 916.722 320.619C915.641 319.908 914.377 319.553 912.927 319.553C911.477 319.553 910.212 319.908 909.132 320.619C908.052 321.33 907.212 322.374 906.612 323.749C906.021 325.125 905.725 326.815 905.725 328.818C905.725 330.822 906.021 332.511 906.612 333.887C907.212 335.263 908.052 336.306 909.132 337.017C910.212 337.728 911.477 338.083 912.927 338.083C914.377 338.083 915.641 337.728 916.722 337.017C917.802 336.306 918.638 335.263 919.228 333.887C919.829 332.511 920.129 330.822 920.129 328.818ZM958.485 323.805C958.291 323.131 958.018 322.535 957.668 322.018C957.317 321.492 956.887 321.049 956.38 320.689C955.881 320.319 955.309 320.038 954.662 319.844C954.025 319.65 953.319 319.553 952.543 319.553C951.094 319.553 949.82 319.913 948.721 320.633C947.631 321.353 946.782 322.401 946.172 323.777C945.563 325.143 945.258 326.815 945.258 328.79C945.258 330.766 945.559 332.447 946.159 333.832C946.759 335.217 947.608 336.274 948.707 337.003C949.806 337.723 951.103 338.083 952.599 338.083C953.956 338.083 955.115 337.843 956.075 337.363C957.044 336.874 957.783 336.186 958.291 335.3C958.808 334.413 959.066 333.365 959.066 332.156L960.285 332.336H952.973V327.821H964.842V331.394C964.842 333.887 964.315 336.029 963.263 337.82C962.21 339.602 960.761 340.978 958.914 341.947C957.067 342.908 954.953 343.388 952.571 343.388C949.912 343.388 947.576 342.801 945.563 341.629C943.55 340.447 941.981 338.771 940.854 336.602C939.737 334.423 939.179 331.837 939.179 328.846C939.179 326.547 939.511 324.497 940.176 322.697C940.85 320.887 941.791 319.354 943.001 318.099C944.21 316.843 945.619 315.887 947.225 315.232C948.832 314.576 950.572 314.249 952.446 314.249C954.053 314.249 955.549 314.484 956.934 314.955C958.318 315.417 959.546 316.072 960.617 316.922C961.698 317.771 962.579 318.782 963.263 319.955C963.946 321.118 964.385 322.401 964.578 323.805H958.485ZM969.346 343V314.636H980.536C982.678 314.636 984.507 315.02 986.021 315.786C987.544 316.543 988.703 317.619 989.497 319.013C990.3 320.398 990.702 322.027 990.702 323.902C990.702 325.785 990.296 327.406 989.483 328.763C988.671 330.111 987.493 331.145 985.952 331.865C984.419 332.585 982.563 332.945 980.384 332.945H972.892V328.126H979.415C980.559 328.126 981.51 327.969 982.268 327.655C983.025 327.341 983.588 326.87 983.957 326.242C984.336 325.614 984.525 324.834 984.525 323.902C984.525 322.96 984.336 322.166 983.957 321.52C983.588 320.873 983.02 320.384 982.254 320.051C981.497 319.71 980.541 319.539 979.387 319.539H975.343V343H969.346ZM984.664 330.092L991.713 343H985.093L978.196 330.092H984.664ZM1021 328.818C1021 331.911 1020.42 334.543 1019.25 336.712C1018.08 338.882 1016.49 340.539 1014.48 341.684C1012.48 342.82 1010.22 343.388 1007.72 343.388C1005.2 343.388 1002.94 342.815 1000.94 341.67C998.933 340.526 997.35 338.868 996.186 336.699C995.023 334.529 994.441 331.902 994.441 328.818C994.441 325.725 995.023 323.094 996.186 320.924C997.35 318.754 998.933 317.102 1000.94 315.966C1002.94 314.821 1005.2 314.249 1007.72 314.249C1010.22 314.249 1012.48 314.821 1014.48 315.966C1016.49 317.102 1018.08 318.754 1019.25 320.924C1020.42 323.094 1021 325.725 1021 328.818ZM1014.92 328.818C1014.92 326.815 1014.62 325.125 1014.02 323.749C1013.43 322.374 1012.6 321.33 1011.52 320.619C1010.44 319.908 1009.17 319.553 1007.72 319.553C1006.27 319.553 1005.01 319.908 1003.93 320.619C1002.85 321.33 1002.01 322.374 1001.41 323.749C1000.82 325.125 1000.52 326.815 1000.52 328.818C1000.52 330.822 1000.82 332.511 1001.41 333.887C1002.01 335.263 1002.85 336.306 1003.93 337.017C1005.01 337.728 1006.27 338.083 1007.72 338.083C1009.17 338.083 1010.44 337.728 1011.52 337.017C1012.6 336.306 1013.43 335.263 1014.02 333.887C1014.62 332.511 1014.92 330.822 1014.92 328.818ZM1042.97 314.636H1048.96V333.056C1048.96 335.124 1048.47 336.934 1047.48 338.485C1046.5 340.036 1045.13 341.246 1043.37 342.114C1041.6 342.972 1039.55 343.402 1037.2 343.402C1034.85 343.402 1032.79 342.972 1031.03 342.114C1029.26 341.246 1027.89 340.036 1026.91 338.485C1025.94 336.934 1025.45 335.124 1025.45 333.056V314.636H1031.44V332.544C1031.44 333.624 1031.68 334.584 1032.15 335.424C1032.63 336.265 1033.3 336.925 1034.17 337.405C1035.04 337.885 1036.05 338.125 1037.2 338.125C1038.37 338.125 1039.38 337.885 1040.24 337.405C1041.11 336.925 1041.78 336.265 1042.25 335.424C1042.73 334.584 1042.97 333.624 1042.97 332.544V314.636ZM1053.9 343V314.636H1065.09C1067.24 314.636 1069.07 315.047 1070.59 315.869C1072.1 316.681 1073.25 317.812 1074.05 319.262C1074.85 320.702 1075.25 322.364 1075.25 324.248C1075.25 326.131 1074.85 327.793 1074.03 329.234C1073.22 330.674 1072.04 331.796 1070.5 332.599C1068.97 333.402 1067.11 333.804 1064.93 333.804H1057.8V328.998H1063.97C1065.12 328.998 1066.07 328.8 1066.82 328.403C1067.58 327.996 1068.14 327.438 1068.51 326.727C1068.89 326.007 1069.08 325.18 1069.08 324.248C1069.08 323.306 1068.89 322.484 1068.51 321.783C1068.14 321.072 1067.58 320.522 1066.82 320.135C1066.06 319.738 1065.1 319.539 1063.94 319.539H1059.89V343H1053.9ZM1088.17 343V314.636H1106.95V319.581H1094.17V326.339H1105.71V331.283H1094.17V343H1088.17ZM1137.05 328.818C1137.05 331.911 1136.47 334.543 1135.29 336.712C1134.13 338.882 1132.54 340.539 1130.53 341.684C1128.53 342.82 1126.27 343.388 1123.77 343.388C1121.25 343.388 1118.99 342.815 1116.98 341.67C1114.98 340.526 1113.4 338.868 1112.23 336.699C1111.07 334.529 1110.49 331.902 1110.49 328.818C1110.49 325.725 1111.07 323.094 1112.23 320.924C1113.4 318.754 1114.98 317.102 1116.98 315.966C1118.99 314.821 1121.25 314.249 1123.77 314.249C1126.27 314.249 1128.53 314.821 1130.53 315.966C1132.54 317.102 1134.13 318.754 1135.29 320.924C1136.47 323.094 1137.05 325.725 1137.05 328.818ZM1130.97 328.818C1130.97 326.815 1130.67 325.125 1130.07 323.749C1129.48 322.374 1128.65 321.33 1127.57 320.619C1126.49 319.908 1125.22 319.553 1123.77 319.553C1122.32 319.553 1121.06 319.908 1119.98 320.619C1118.9 321.33 1118.06 322.374 1117.46 323.749C1116.86 325.125 1116.57 326.815 1116.57 328.818C1116.57 330.822 1116.86 332.511 1117.46 333.887C1118.06 335.263 1118.9 336.306 1119.98 337.017C1121.06 337.728 1122.32 338.083 1123.77 338.083C1125.22 338.083 1126.49 337.728 1127.57 337.017C1128.65 336.306 1129.48 335.263 1130.07 333.887C1130.67 332.511 1130.97 330.822 1130.97 328.818ZM1159.01 314.636H1165.01V333.056C1165.01 335.124 1164.52 336.934 1163.53 338.485C1162.55 340.036 1161.18 341.246 1159.42 342.114C1157.65 342.972 1155.6 343.402 1153.25 343.402C1150.9 343.402 1148.84 342.972 1147.08 342.114C1145.31 341.246 1143.94 340.036 1142.96 338.485C1141.98 336.934 1141.49 335.124 1141.49 333.056V314.636H1147.49V332.544C1147.49 333.624 1147.73 334.584 1148.2 335.424C1148.68 336.265 1149.35 336.925 1150.22 337.405C1151.09 337.885 1152.1 338.125 1153.25 338.125C1154.42 338.125 1155.43 337.885 1156.29 337.405C1157.15 336.925 1157.82 336.265 1158.29 335.424C1158.77 334.584 1159.01 333.624 1159.01 332.544V314.636ZM1193.67 314.636V343H1188.49L1176.15 325.148H1175.94V343H1169.94V314.636H1175.21L1187.45 332.474H1187.7V314.636H1193.67ZM1208.68 343H1198.62V314.636H1208.76C1211.61 314.636 1214.07 315.204 1216.13 316.34C1218.19 317.466 1219.77 319.087 1220.88 321.201C1222 323.315 1222.56 325.845 1222.56 328.79C1222.56 331.745 1222 334.284 1220.88 336.408C1219.77 338.531 1218.18 340.161 1216.1 341.297C1214.03 342.432 1211.56 343 1208.68 343ZM1204.62 337.862H1208.43C1210.2 337.862 1211.69 337.548 1212.9 336.92C1214.12 336.283 1215.03 335.3 1215.64 333.97C1216.26 332.631 1216.57 330.905 1216.57 328.79C1216.57 326.695 1216.26 324.982 1215.64 323.652C1215.03 322.323 1214.13 321.344 1212.92 320.716C1211.71 320.088 1210.22 319.775 1208.44 319.775H1204.62V337.862Z" fill="black"/>
</svg>
