<svg width="886" height="772" viewBox="0 0 886 772" fill="none" xmlns="http://www.w3.org/2000/svg">
<path d="M726.898 321.9C740.898 305.2 748.998 300.6 759.098 289.3C767.698 279.7 776.398 269.9 781.498 258.1C786.498 246.3 787.198 231.8 780.098 221.1C780.098 221.1 757.598 216.5 740.898 215.6C724.198 214.7 716.398 214.9 716.398 214.9L707.098 242.9L723.898 249.8L689.498 280.8L662.398 312.3L675.898 351.4L694.098 353.1L726.898 321.9Z" fill="#FFBE9D"/>
<path d="M750.799 223.9C750.899 224 749.2 225.7 746.4 228.5C743.4 231.5 739.6 235.2 735.4 239.3C731.1 243.5 727.099 247.3 724.199 249.9C721.199 252.5 719.299 254.1 719.199 254C719.099 253.9 720.799 252.1 723.699 249.4C726.699 246.4 730.499 242.7 734.699 238.5C738.999 234.3 742.9 230.6 745.9 227.9C748.8 225.3 750.799 223.8 750.799 223.9Z" fill="#EB996E"/>
<path d="M775.697 231.3C775.497 231.4 774.697 230.5 773.097 229.6C771.597 228.6 769.097 227.7 766.297 227.9C763.497 228.2 761.197 229.5 759.797 230.7C758.397 231.9 757.797 232.9 757.597 232.8C757.497 232.8 757.897 231.6 759.297 230.2C760.597 228.8 763.097 227.2 766.197 226.9C769.297 226.6 771.997 227.8 773.497 228.9C775.097 230.1 775.697 231.2 775.697 231.3Z" fill="#EB996E"/>
<path d="M714.601 228C720.601 226.3 724.101 218.8 721.601 213.1C720.401 210.5 718.301 208.4 716.601 206C715.701 204.6 714.901 203.2 714.301 201.6L711.501 193.1C709.601 186 708.101 178.8 702.601 174.3C697.501 170.2 690.601 169.6 684.801 166.7C680.601 164.6 677.001 161.4 672.901 159.1C668.801 156.8 663.501 155.7 659.401 158.2C657.101 159.7 655.501 162.2 653.201 163.6C648.301 166.6 641.301 164.4 636.801 167.9C633.101 170.8 632.801 176.2 630.201 180C627.301 184.2 625.601 188.1 621.101 190.3C616.601 192.6 613.901 196.9 613.901 202C613.801 206.4 613.201 208.4 613.101 212.9C613.001 216.1 611.301 219.4 610.001 222.4C608.801 225.3 606.301 236.9 609.001 238.8L639.101 252.3C648.701 261.7 658.501 271.3 670.901 276.4L673.301 279.6C670.401 279.9 703.501 276.6 709.001 256.8C709.701 254 710.601 251.3 712.401 249.1C714.301 246.9 716.401 244.8 717.601 242.3C719.901 237.6 718.601 231.4 714.601 228Z" fill="#263238"/>
<path d="M682.801 261.501C689.001 254.201 695.201 246.801 700.001 238.501C704.901 230.301 708.401 221.001 708.701 211.401C708.801 210.001 708.201 199.901 706.901 199.501C705.901 199.201 705.101 208.101 704.201 208.701C696.401 214.701 691.201 223.701 688.201 233.201C685.201 242.601 683.701 251.601 682.801 261.501Z" fill="#263238"/>
<path d="M623.099 323.1C636.999 328.4 664.899 304.8 664.899 304.8L697.499 228C707.399 206.1 702.899 182.1 680.699 172.8L678.599 172.1C657.399 164.7 634.199 174.8 625.099 195.2C616.699 214.3 607.599 235.4 603.999 246C596.699 267.9 617.299 278.9 617.299 278.9C617.299 278.9 615.399 283.9 612.799 290.1C607.199 304.3 617.399 321.3 623.099 323.1Z" fill="#FFBE9D"/>
<path d="M617.298 278.9C617.298 278.9 630.698 284.5 648.498 280.4C648.498 280.4 636.098 293.8 615.098 284.3L617.298 278.9Z" fill="#EB996E"/>
<path d="M622.498 214.5C622.698 215.1 625.698 214.2 628.998 215.3C632.398 216.5 634.198 219 634.698 218.8C634.998 218.6 634.798 217.8 633.998 216.6C633.298 215.5 631.698 214.1 629.598 213.4C627.598 212.7 625.498 212.8 624.298 213.2C622.898 213.7 622.298 214.3 622.498 214.5Z" fill="#263238"/>
<path d="M655.3 224.601C655.6 225.201 658.5 224.201 661.9 225.401C665.2 226.601 667.1 229.101 667.6 228.901C667.8 228.701 667.7 227.901 666.9 226.701C666.1 225.601 664.6 224.201 662.5 223.501C660.4 222.801 658.4 222.901 657.1 223.301C655.8 223.801 655.2 224.401 655.3 224.601Z" fill="#263238"/>
<path d="M637.9 240.2C638 240 636 239 632.8 237.3C632 237 631.2 236.5 631.3 235.9C631.3 235.2 632 234.4 632.7 233.5C634.233 231.767 635.833 229.9 637.5 227.9C644.3 219.9 649.5 213.2 649.2 212.9C648.8 212.6 643.1 218.9 636.4 227C634.733 228.933 633.167 230.8 631.7 232.6C631 233.5 630 234.4 630 235.8C630 236.6 630.5 237.2 631 237.6C631.5 237.9 632 238.1 632.4 238.3C635.7 239.7 637.8 240.4 637.9 240.2Z" fill="#263238"/>
<path d="M646.898 246C646.398 245.8 645.098 249.4 641.098 250.9C637.098 252.4 633.398 250.6 633.198 251.1C632.998 251.3 633.798 252.1 635.398 252.7C636.998 253.4 639.498 253.7 641.998 252.8C644.398 251.8 645.998 250 646.598 248.6C647.298 247.1 647.198 246.1 646.898 246Z" fill="#263238"/>
<path d="M663.801 205.2C663.801 206.2 667.301 207 671.101 208.8C674.901 210.6 677.601 212.8 678.401 212.2C678.801 211.9 678.601 210.9 677.601 209.5C676.601 208.2 674.901 206.7 672.601 205.6C670.401 204.5 668.101 204.1 666.401 204.2C664.801 204.3 663.801 204.7 663.801 205.2Z" fill="#263238"/>
<path d="M631.897 195.3C632.197 196.2 634.797 196.2 637.497 197.2C640.397 198 642.497 199.5 643.297 198.9C643.697 198.6 643.597 197.7 642.797 196.6C641.997 195.5 640.597 194.4 638.597 193.8C636.697 193.1 634.797 193.3 633.597 193.7C632.297 194.1 631.697 194.8 631.897 195.3Z" fill="#263238"/>
<path d="M690.097 243.5C690.597 243.5 706.597 244.3 700.997 259C695.297 273.7 681.697 265 681.797 264.6C681.897 264.1 690.097 243.5 690.097 243.5Z" fill="#FFBE9D"/>
<path d="M688.5 260.7C688.5 260.7 688.6 261 689 261.4C689.3 261.7 690 262.2 690.9 262.2C692.7 262.2 694.9 260.2 696 257.6C696.6 256.3 696.8 254.9 696.7 253.7C696.7 252.4 696.3 251.4 695.6 250.9C694.9 250.5 694.1 250.7 693.8 251.1C693.4 251.4 693.4 251.7 693.3 251.7C693.3 251.7 693.1 251.4 693.4 250.8C693.6 250.5 693.9 250.2 694.4 250.1C694.8 249.9 695.4 250 695.9 250.3C697 250.8 697.7 252.2 697.7 253.6C697.9 255 697.7 256.5 697 258C695.8 261 693.2 263.1 690.9 262.9C689.7 262.8 689 262.2 688.7 261.6C688.3 261.1 688.4 260.7 688.5 260.7Z" fill="#EB996E"/>
<path d="M644.2 174.7C642.4 172.5 652.5 167.6 659.4 167.3C669.8 166.7 684.2 169.6 691.5 175.1C700.1 181.8 706.3 189.9 707.7 200.7C709.1 211.6 706.8 222.7 702.5 232.8C701.2 235.8 699.6 238.9 696.9 240.9C693.6 243.3 688.8 243.8 687.2 248.4C686.7 250 685.5 251.5 683.9 252.2C680.1 254 677.9 250 677.5 246.8C676.5 239.7 678.9 232.7 681.2 226C682.9 221.3 684.6 216.4 687.7 212.5C689.3 210.3 691.4 208.4 693 206.2C694.5 203.9 695.6 201.1 694.8 198.5C694.7 198 694.5 197.5 694.099 196.8C691.399 191.5 686 188.1 680.099 187.9C670.699 187.5 654.8 186.3 652.3 182C648.6 175.9 648.3 172.8 648.3 172.8L644.2 174.7Z" fill="#263238"/>
<path d="M691.499 172.9C684.499 167 675.299 163.5 666.199 164.4C661.299 164.9 656.399 166.8 653.499 170.6C650.499 174.5 650.299 180.6 653.799 183.9L653.999 184.2C659.399 188.8 663.799 189.6 670.899 189.9C676.899 190.2 682.799 188.8 688.799 189.1C695.099 189.4 701.399 191.6 706.399 195.5C703.399 186.9 698.499 178.7 691.499 172.9Z" fill="#263238"/>
<path d="M712.599 204.5C712.699 204.5 711.799 206.1 709.799 208.2C707.799 210.3 704.699 212.8 700.699 214.8C696.699 216.7 692.699 217.6 689.899 217.9C686.999 218.2 685.199 218 685.199 217.9C685.199 217.5 692.399 217.7 700.199 213.8C708.099 210.1 712.399 204.2 712.599 204.5Z" fill="#455A64"/>
<path d="M717.6 209.3C717.6 209.3 717.5 209.9 717 210.9C716.5 212 715.7 213.5 714.5 215.2C712.1 218.6 708 222.8 702.3 225.6C696.6 228.5 690.7 229.3 686.6 229.1C684.5 229 682.9 228.8 681.7 228.6C680.6 228.3 680 228.1 680 228.1C680 227.9 682.5 228.4 686.6 228.4C690.6 228.3 696.3 227.5 701.8 224.7C707.3 221.9 711.4 217.9 713.9 214.7C716.4 211.5 717.4 209.2 717.6 209.3Z" fill="#455A64"/>
<path d="M523.398 371.9L452.598 298L437.398 322L456.198 357.8C456.198 357.8 476.598 391.4 487.198 403.2C497.698 415 498.498 412.4 498.498 412.4L523.398 371.9Z" fill="#FFBE9D"/>
<path d="M426.499 276.6C426.199 276.4 413.799 274.6 408.899 273.9C407.599 273.7 406.299 274 405.199 274.7L397.799 279.6L391.699 292.6L393.499 293.8L391.699 305.5C391.699 305.5 394.599 308.7 397.599 305C400.499 301.4 402.999 296.3 402.999 296.3L410.999 296.1L410.699 296.9L402.399 299L399.699 306L402.099 313.3L407.699 318.4L410.099 318.3L414.599 321C414.599 321 419.199 317 415.299 313.1C415.299 313.1 419.099 316.8 421.099 315.3L437.899 323L451.099 310.2L454.699 300C454.699 300 433.699 279.4 432.399 278.4C431.099 277.4 426.499 276.6 426.499 276.6Z" fill="#FFBE9D"/>
<path d="M415.4 312.799C415.2 312.799 415.5 311.799 415.3 310.299C415 308.799 414.3 306.699 412.4 305.299C412.333 305.233 412.233 305.133 412.1 304.999L411.8 304.799L411.9 304.499C412.6 302.299 412.5 300.199 412.2 298.799C411.8 297.299 411.4 296.499 411.5 296.399C411.6 296.399 412.3 297.099 412.8 298.599C413.4 300.099 413.7 302.399 412.9 304.799L412.7 304.199C412.833 304.266 412.967 304.366 413.1 304.499C415.2 306.099 416 308.599 416 310.199C416 311.899 415.5 312.899 415.4 312.799Z" fill="#EB996E"/>
<path d="M409.397 318.2C409.297 318.1 410.397 317.5 410.897 315.8C411.397 314.1 410.797 311.6 409.097 309.5C408.631 308.833 408.164 308.233 407.697 307.7L407.497 307.5L407.597 307.2C408.397 305.2 407.597 303.3 406.697 302.3C405.897 301.3 404.997 301 405.097 300.9C405.097 300.8 405.997 300.8 407.197 301.8C408.397 302.8 409.397 305.1 408.597 307.5L408.497 307C408.964 307.6 409.431 308.2 409.897 308.8C410.797 310 411.497 311.3 411.797 312.6C412.097 313.9 411.897 315.1 411.597 316C410.797 317.9 409.397 318.4 409.397 318.2Z" fill="#EB996E"/>
<path d="M411.798 304.9C411.998 305.1 411.298 305.9 410.198 306.5C409.098 307.2 408.198 307.6 407.998 307.3C407.898 307.1 408.598 306.3 409.698 305.7C410.698 305 411.698 304.7 411.798 304.9Z" fill="#EB996E"/>
<path d="M414.501 314C414.201 314.1 413.801 312.6 412.601 311.2C411.401 309.8 410.101 309 410.201 308.7C410.201 308.5 412.001 308.9 413.401 310.5C414.801 312.2 414.801 314 414.501 314Z" fill="#EB996E"/>
<path d="M419.701 314.099C419.401 313.899 421.001 310.199 421.601 305.299C422.301 300.399 421.601 296.399 421.901 296.399C422.101 296.299 423.301 300.399 422.701 305.499C422.001 310.499 419.901 314.199 419.701 314.099Z" fill="#EB996E"/>
<path d="M402.598 285.399C402.698 285.399 402.498 286.199 402.098 287.299C401.698 288.399 400.998 289.999 399.798 291.399C398.498 292.799 396.798 293.599 395.598 293.699C394.298 293.899 393.598 293.499 393.598 293.399C393.698 293.199 394.398 293.299 395.398 292.999C396.498 292.699 397.898 291.899 398.998 290.699C400.098 289.399 400.898 287.999 401.498 286.999C401.998 285.899 402.398 285.299 402.598 285.399Z" fill="#EB996E"/>
<path d="M411.4 294.7C411.2 294.4 411.6 293.8 412.1 293.1C412.5 292.4 412.9 291.7 413.2 291.8C413.5 291.8 413.5 292.7 413 293.6C412.4 294.6 411.5 294.9 411.4 294.7Z" fill="#EB996E"/>
<path d="M359.598 273.901L359.798 304.201C359.898 314.401 400.798 314.001 400.298 303.901C400.298 303.301 400.098 273.601 400.098 273.601L359.598 273.901Z" fill="#455A64"/>
<path d="M399.098 278.9C401.498 278.5 403.998 278.6 406.398 279C408.098 279.3 409.998 279.9 410.998 281.4C411.798 282.5 411.998 283.9 412.098 285.3C412.398 288 412.398 290.7 411.298 293.2C410.298 295.4 408.298 297.1 405.998 298C403.798 299 401.298 299.2 398.898 299.1C398.898 297.567 398.898 296.033 398.898 294.5C400.298 294.5 401.798 294.5 403.198 294.2C404.598 293.9 405.998 293.3 406.998 292.2C408.498 290.4 408.698 287.8 408.498 285.4C408.498 284.5 408.298 283.5 407.798 282.7C406.998 281.7 405.598 281.4 404.298 281.4C402.598 281.4 400.798 281.7 399.298 282.4" fill="#455A64"/>
<path d="M385.099 212.1C385.099 212.1 384.799 212.4 384.199 212.5C383.599 212.5 382.599 212.3 381.799 211.3C381.399 210.9 381.099 210.2 380.999 209.5C380.899 208.8 381.099 207.8 381.699 207.2C382.999 205.9 385.299 205.6 387.199 206.7C389.199 207.9 390.099 210.5 389.699 213C389.299 215.5 387.799 217.8 386.099 219.9C384.399 221.9 382.399 224 381.499 226.7C380.499 229.3 380.999 232.4 382.999 234.6C384.999 236.9 387.699 238.4 389.799 240.6C390.799 241.7 391.699 243 391.899 244.6C392.199 246.1 391.799 247.6 391.199 248.9C389.899 251.4 387.699 253 385.699 254.4C383.699 255.7 381.899 257 380.699 258.5C378.099 261.6 377.499 265 377.399 267.2C377.299 269.4 377.699 270.7 377.599 270.7C377.599 270.7 377.499 270.4 377.299 269.8C377.199 269.2 376.999 268.3 376.999 267.2C376.899 264.9 377.499 261.4 380.099 258C381.399 256.4 383.299 255 385.199 253.7C387.099 252.3 389.199 250.7 390.399 248.4C390.899 247.3 391.199 246 390.899 244.7C390.699 243.5 389.999 242.3 388.999 241.3C387.099 239.2 384.299 237.7 382.199 235.3C379.899 232.9 379.399 229.2 380.499 226.3C381.599 223.4 383.599 221.3 385.299 219.3C386.999 217.2 388.499 215.1 388.799 212.8C389.199 210.6 388.499 208.3 386.799 207.3C385.199 206.4 383.199 206.5 382.199 207.6C380.999 208.7 381.499 210.3 382.099 211.1C382.799 211.9 383.599 212.3 384.199 212.2C384.799 212.2 384.999 212 385.099 212.1Z" fill="#263238"/>
<path d="M402.1 281.6L418.1 280.8L436.2 286L458.9 305.3C458.9 305.3 441.6 318.2 436 312.6C430.4 306.9 423.8 294.5 423.8 294.5L417.4 291.8C417.4 291.8 396.2 291.8 402.1 281.6Z" fill="#FFBE9D"/>
<path d="M448.396 296.4C448.396 296.4 448.096 296.2 447.496 295.8C446.829 295.266 445.996 294.6 444.996 293.8C442.796 291.9 439.696 289.4 435.996 286.3L436.096 286.4C430.996 284.9 424.796 283.2 417.896 281.3H418.096C413.096 281.6 407.696 281.8 402.096 282.1L402.496 281.8C402.496 281.933 402.463 282.033 402.396 282.1C401.496 283.7 401.196 285.7 402.396 287.1C403.496 288.5 405.296 289.3 406.996 289.8C410.496 290.9 414.096 291.2 417.396 291.3H417.496L417.596 291.4C419.863 292.333 421.996 293.233 423.996 294.1L424.096 294.2L424.196 294.3C427.296 300.1 430.196 304.8 432.396 307.9C433.396 309.4 434.396 310.6 434.996 311.3C435.696 312.1 435.996 312.5 435.996 312.6C435.929 312.6 435.529 312.233 434.796 311.5C434.096 310.8 433.096 309.7 431.996 308.1C429.696 305.1 426.596 300.5 423.496 294.7L423.696 294.9C421.629 294.1 419.463 293.2 417.196 292.2L417.396 292.3C413.996 292.2 410.396 291.9 406.696 290.8C404.896 290.2 402.896 289.4 401.496 287.7C400.896 286.9 400.496 285.8 400.496 284.7C400.596 283.6 400.996 282.5 401.496 281.6C401.563 281.533 401.596 281.433 401.596 281.3L401.796 281.1H402.096C407.696 280.8 413.096 280.6 417.996 280.3H418.096L418.196 280.4C424.996 282.3 431.196 284.1 436.296 285.6L436.396 285.7H436.496C440.096 288.9 443.096 291.5 445.296 293.4C446.229 294.266 446.996 295 447.596 295.6C448.129 296.066 448.396 296.333 448.396 296.4Z" fill="#EB996E"/>
<path d="M399.896 305.2C399.996 305.2 399.496 305.5 398.596 306.1C398.129 306.367 397.563 306.634 396.896 306.9C396.196 307.3 395.396 307.6 394.496 307.9C390.996 309.2 385.796 310.3 379.996 310.3C374.196 310.2 368.996 309 365.496 307.8C363.696 307.1 362.296 306.5 361.396 306C360.496 305.5 359.996 305.2 359.996 305.2C360.096 305 362.196 306 365.696 307.1C369.296 308.1 374.296 309.2 379.996 309.2C385.696 309.3 390.696 308.3 394.296 307.2C397.796 306.1 399.796 305 399.896 305.2Z" fill="#263238"/>
<path d="M400.198 304.901C399.898 304.901 399.698 297.901 399.598 289.301C399.598 280.601 399.798 273.601 400.098 273.601C400.398 273.601 400.598 280.601 400.698 289.201C400.698 297.901 400.498 304.901 400.198 304.901Z" fill="#263238"/>
<path d="M380.098 271.701C380.098 271.701 379.998 271.534 379.798 271.201C379.598 270.801 379.398 270.301 379.298 269.501C378.998 268.101 379.198 265.701 380.498 263.301C381.698 260.801 384.098 258.601 386.798 256.401C389.498 254.201 392.498 251.701 393.898 248.001C394.598 246.201 394.698 244.301 394.098 242.601C393.498 240.901 392.398 239.501 391.098 238.301C388.698 235.901 385.998 233.901 384.898 231.301C383.698 228.701 384.298 226.301 385.198 225.001C385.598 224.401 386.098 224.001 386.398 223.801C386.798 223.601 386.998 223.601 386.998 223.601C387.098 223.701 386.198 224.001 385.498 225.201C384.798 226.401 384.398 228.701 385.598 231.001C386.698 233.301 389.198 235.201 391.798 237.601C393.098 238.801 394.398 240.301 395.098 242.201C395.798 244.201 395.698 246.401 394.898 248.401C393.398 252.401 390.098 255.001 387.398 257.101C384.698 259.301 382.398 261.401 381.098 263.701C379.898 265.901 379.498 268.101 379.698 269.501C379.798 270.901 380.198 271.701 380.098 271.701Z" fill="#263238"/>
<path d="M116.998 292.4L77.9984 262.9C77.9984 262.9 94.8984 213.4 88.1984 207.3L28.3984 280.8L87.1984 329.1L116.998 292.4Z" fill="black"/>
<g opacity="0.3">
<path d="M116.998 292.4L77.9984 262.9C77.9984 262.9 94.8984 213.4 88.1984 207.3L28.3984 280.8L87.1984 329.1L116.998 292.4Z" fill="black"/>
</g>
<path d="M62.6966 288.2C61.1966 289.3 58.7966 289 57.5966 287.5C56.3966 286 56.6966 283.6 58.2966 282.4C59.7966 281.3 62.6966 281.6 63.6966 283.2C64.6966 284.8 64.1966 287.7 62.3966 288.4" fill="#E0E0E0"/>
<g opacity="0.6">
<path d="M28.3984 280.8L34.4984 285.4L89.5984 213.2C89.5984 213.2 90.7984 208.8 88.1984 207.3L28.3984 280.8Z" fill="white"/>
</g>
<path d="M79.3999 262C78.9999 261.7 77.3999 263.4 74.7999 264.2C72.1999 265.1 69.8999 264.8 69.7999 265.2C69.5999 265.6 72.1999 266.8 75.2999 265.8C78.3999 264.7 79.7999 262.2 79.3999 262Z" fill="#263238"/>
<path d="M82.4974 251.7C82.1974 251.3 80.2974 252.4 77.7974 252.4C75.2974 252.4 73.3974 251.4 73.0974 251.8C72.7974 252.1 74.6974 254 77.7974 254C80.8974 254 82.7974 252 82.4974 251.7Z" fill="#263238"/>
<path d="M76.8001 239.8C76.5001 240.1 77.8001 242 80.6001 242.7C83.3001 243.4 85.4001 242.4 85.2001 242C85.1001 241.5 83.2001 241.8 81.0001 241.2C78.7001 240.6 77.1001 239.5 76.8001 239.8Z" fill="#263238"/>
<path d="M87.4967 269.7C87.0967 269.6 86.1967 271.6 84.3967 273.6C82.6967 275.5 80.6967 276.5 80.8967 277C80.9967 277.4 83.4967 276.9 85.5967 274.6C87.6967 272.4 87.8967 269.8 87.4967 269.7Z" fill="#263238"/>
<path d="M136.098 263.8L101.098 229.8C101.098 229.8 123.898 182.7 117.998 175.8L49.5977 241.4L102.098 296.6L136.098 263.8Z" fill="black"/>
<path d="M82.7977 253C81.0977 253.9 78.7977 253.3 77.7977 251.7C76.7977 250.1 77.3978 247.7 79.0978 246.7C80.6978 245.8 83.5977 246.4 84.2977 248.2C85.0977 249.9 84.2977 252.7 82.3977 253.2" fill="#E0E0E0"/>
<g opacity="0.6">
<path d="M49.5977 241.4L55.0977 246.8L118.698 181.9C118.698 181.9 120.398 177.6 117.998 175.8L49.5977 241.4Z" fill="white"/>
</g>
<path d="M102.498 229.1C102.198 228.7 100.398 230.2 97.6976 230.7C94.9976 231.3 92.7976 230.6 92.5976 231.1C92.3976 231.4 94.7976 232.9 97.9976 232.3C101.298 231.6 102.898 229.3 102.498 229.1Z" fill="#263238"/>
<path d="M106.897 219.199C106.597 218.799 104.597 219.599 102.097 219.299C99.5968 219.099 97.8968 217.799 97.5968 218.099C97.1968 218.399 98.8968 220.599 101.997 220.899C105.097 221.299 107.197 219.499 106.897 219.199Z" fill="#263238"/>
<path d="M102.696 206.7C102.296 206.9 103.496 209.1 106.096 210.1C108.696 211.1 110.896 210.3 110.796 209.9C110.696 209.4 108.796 209.4 106.696 208.6C104.496 207.7 103.096 206.4 102.696 206.7Z" fill="#263238"/>
<path d="M109.699 237.699C109.199 237.499 108.099 239.499 106.099 241.099C104.099 242.899 102.099 243.599 102.199 244.099C102.199 244.499 104.799 244.399 107.199 242.399C109.499 240.399 110.099 237.799 109.699 237.699Z" fill="#263238"/>
<path d="M120.798 246.5C120.798 246.5 225.998 329.6 245.798 332.1L268.198 335.7L313.198 355.1L452.198 428.3L495.798 458.7L518.098 501L519.998 526.4C519.998 526.4 419.498 538.7 404.698 529.6C389.898 520.6 262.998 425.8 256.498 418.4C249.898 411 130.298 360.9 82.5977 278.8L120.798 246.5Z" fill="#263238"/>
<path d="M66.5977 326.2C66.5977 326.2 142.898 397.1 196.398 417.6C249.798 438.2 292.598 464.5 292.598 464.5L382.298 513.3L497.398 461.3L474.698 420.5L287.698 376.5L97.7977 280.3C97.7977 280.3 67.4977 311.4 66.5977 326.2Z" fill="#263238"/>
<path d="M445.797 482.8C454.397 467.2 472.497 457.4 490.297 458.8L445.797 482.8Z" fill="#263238"/>
<path d="M456.099 441.3C459.399 451.2 455.899 463 447.699 469.5L456.099 441.3Z" fill="#263238"/>
<path d="M389.896 394.4C389.896 394.3 390.696 394.7 391.996 395.3C393.296 396 395.296 397 397.596 398.2C402.296 400.7 408.796 404.3 415.696 408.6C422.696 412.9 428.796 416.9 433.196 420C435.296 421.5 437.096 422.8 438.296 423.7C439.496 424.6 440.096 425.1 440.096 425.2C439.996 425.3 439.296 424.8 438.096 424C436.629 423.133 434.863 422 432.796 420.6C428.296 417.7 422.096 413.7 415.196 409.5C408.196 405.2 401.896 401.5 397.296 398.9C395.096 397.633 393.263 396.567 391.796 395.7C390.496 394.9 389.796 394.5 389.896 394.4Z" fill="#455A64"/>
<path d="M409.998 527.3C409.998 527.3 409.698 527.1 409.098 526.7C408.498 526.3 407.631 525.733 406.498 525C404.198 523.4 400.898 521.1 396.598 518.1C387.998 512.1 375.598 503.5 360.298 492.8C344.998 482 326.698 469.3 306.498 455.1C296.398 448 285.698 440.5 274.698 432.8C269.231 428.933 263.631 425 257.898 421C252.298 416.933 246.464 413 240.398 409.2C228.298 401.7 216.198 394.8 204.898 387.5C193.498 380.3 182.798 372.9 172.698 365.8C162.598 358.6 152.998 351.9 144.198 345.3C135.398 338.7 127.498 332.1 120.698 325.7C106.998 312.9 97.4977 300.9 91.4977 292.4C89.9977 290.2 88.6976 288.3 87.4977 286.6C86.3643 284.933 85.4643 283.533 84.7977 282.4C84.0643 281.2 83.4977 280.3 83.0977 279.7C82.7643 279.1 82.5977 278.8 82.5977 278.8C82.5977 278.8 82.7976 279.066 83.1976 279.6C83.5976 280.266 84.1643 281.133 84.8976 282.2C85.6976 283.4 86.6643 284.833 87.7977 286.5C88.8977 288.1 90.2977 290 91.7977 292.1C97.8977 300.6 107.398 312.4 121.198 325.1C127.998 331.5 135.898 338 144.698 344.6C153.498 351.1 163.098 357.9 173.198 365C183.398 372.1 194.098 379.4 205.398 386.7C216.698 393.9 228.798 400.8 240.998 408.3C246.998 412.1 252.898 416.1 258.498 420.1C264.231 424.1 269.831 428.033 275.298 431.9C286.298 439.7 296.898 447.2 306.998 454.3C327.198 468.5 345.398 481.4 360.698 492.2C375.898 503 388.298 511.7 396.798 517.8C401.098 520.8 404.398 523.2 406.598 524.8C407.731 525.6 408.598 526.2 409.198 526.6C409.731 527.066 409.998 527.3 409.998 527.3Z" fill="#455A64"/>
<path d="M612.398 290.2C612.398 290.2 575.798 310 568.898 318.2C562.598 325.9 491.698 396.8 491.698 396.8C491.698 396.8 445.798 410.5 447.598 414.3C450.898 421.3 463.698 433.8 470.598 440.2C473.665 443.067 476.432 446.167 478.898 449.5C484.698 457.5 495.998 473.2 505.398 486.3C518.498 504.6 519.998 526.4 519.998 526.4L552.398 508.6C568.898 502 577.898 483.9 595.998 474.6L650.498 415.9L667.098 382L672.598 298.6L664.698 299.2L634.298 303.2C634.298 303.2 607.898 300.4 612.398 290.2Z" fill="black"/>
<path d="M641.698 312.2L666.798 301.1C666.798 301.1 677.298 290.8 686.798 284C686.798 284 655.598 322.9 682.998 335.9C710.498 348.8 732.598 314.6 732.598 314.6C732.598 314.6 727.098 323.1 723.898 329.7C720.698 336.4 704.398 357.6 704.398 357.6C704.398 357.6 703.898 368 694.598 378.8C685.198 389.5 674.698 407.2 666.298 411.7C657.998 416.3 639.298 424.6 639.298 424.6C639.298 424.6 633.098 395.3 635.898 363.2C638.598 331.1 641.698 312.2 641.698 312.2Z" fill="black"/>
<path d="M680.597 343.5C680.597 343.6 679.797 343.1 678.497 342C677.197 340.9 675.297 339.3 673.297 337C671.397 334.7 669.397 331.5 668.697 327.4C667.897 323.4 668.397 318.9 669.397 314.4C671.597 305.3 675.797 297.9 679.097 292.9C680.797 290.4 682.297 288.4 683.297 287.1C684.397 285.7 684.997 285 684.997 285.1C685.097 285.1 684.597 285.9 683.597 287.3C682.697 288.7 681.297 290.7 679.797 293.3C676.597 298.4 672.497 305.7 670.497 314.6C669.397 319 668.997 323.4 669.597 327.2C670.197 331.1 672.097 334.2 673.897 336.5C677.697 341.1 680.797 343.4 680.597 343.5Z" fill="#263238"/>
<path d="M676.9 373.8C676.9 373.866 676.567 374.033 675.9 374.3C675.3 374.6 674.3 375 673.1 375.4C670.5 376.2 666.8 377.5 661.9 377.5C659.5 377.5 656.8 377.1 654.3 375.8C651.7 374.5 649.4 372.1 648 369.2C645.2 363.3 644.9 356.1 645.5 348.9C646.2 341.6 647.5 334.7 649.7 328.8C651.9 322.8 655 317.9 657.6 314C660.3 310 662.7 307 664.4 304.9C665.133 303.966 665.767 303.2 666.3 302.6C666.767 302.066 667.033 301.8 667.1 301.8C667.1 301.8 666.9 302.1 666.5 302.7C666.033 303.366 665.433 304.2 664.7 305.2C663.1 307.3 660.8 310.4 658.2 314.4C655.7 318.4 652.7 323.2 650.6 329.1C648.5 335 647.2 341.8 646.5 349C645.9 356.1 646.2 363.2 648.9 368.8C650.2 371.6 652.3 373.7 654.7 375C657 376.3 659.6 376.7 662 376.8C666.7 376.8 670.4 375.7 672.9 375C674.1 374.666 675.067 374.366 675.8 374.1C676.533 373.9 676.9 373.8 676.9 373.8Z" fill="#263238"/>
<path d="M666.7 300.1C666.8 300.2 665 301.5 662.3 303.7C659.6 305.9 656 309.1 652.5 313.1C648.9 317.1 646.1 321.1 644.3 324.1C642.4 327 641.4 328.9 641.2 328.9C641.1 328.8 641.9 326.8 643.6 323.7C645.4 320.6 648.1 316.5 651.7 312.4C655.3 308.4 659 305.2 661.9 303.1C664.7 301 666.7 300 666.7 300.1Z" fill="#263238"/>
<g opacity="0.3">
<path d="M668.298 300.1C652.398 315.1 641.798 339 641.198 360.9C641.098 362.9 641.698 365.6 643.698 365.6C644.898 365.6 645.898 364.5 646.098 363.3C646.398 362.1 645.898 360.9 645.798 359.7C645.098 350.1 647.198 338.7 650.498 328.5C653.798 318.4 661.998 308.7 668.298 300.1Z" fill="black"/>
</g>
<g opacity="0.3">
<path d="M682.497 287.4C675.697 295 669.297 303.3 665.897 312.9C662.397 322.5 662.297 333.7 667.497 342.5C668.897 344.9 671.797 347.3 674.297 345.9C675.997 344.9 676.297 342.6 675.697 340.7C674.997 338.9 673.697 337.4 672.597 335.8C667.897 328.9 667.697 319.7 670.197 311.7C672.697 303.7 677.397 296.7 682.197 289.8" fill="black"/>
</g>
<g opacity="0.3">
<path d="M467.098 436.9C478.898 444.1 491.798 449.7 505.398 451.9C516.898 453.7 528.698 451.7 540.198 449.8C570.198 445 600.798 440.6 630.998 436.9C630.998 436.9 576.098 436.9 548.898 436.9C520.598 436.9 494.398 436.9 467.098 436.9Z" fill="black"/>
</g>
<path d="M576.098 526.4C576.098 526.4 576.698 526.1 577.898 525.9C578.998 525.7 580.698 525.6 582.798 525.7C586.998 526.1 592.798 528.1 597.398 532.7C599.698 534.9 601.598 537.3 602.798 539.9C604.098 542.4 604.598 544.9 604.698 547C604.698 549.2 604.398 550.8 604.198 552C603.798 553.1 603.598 553.7 603.498 553.7C603.298 553.6 604.198 551.2 603.898 547.1C603.798 545.1 603.198 542.7 601.998 540.3C600.798 537.9 598.898 535.6 596.698 533.4C592.298 529.1 586.798 527 582.698 526.5C578.698 525.9 576.198 526.6 576.098 526.4Z" fill="#263238"/>
<path d="M583.398 571.2H393.098C381.698 571.2 372.398 562 372.398 550.6V547.1C372.398 535.7 381.698 526.4 393.098 526.4H583.398C594.798 526.4 604.098 535.7 604.098 547.1V550.6C604.098 562 594.798 571.2 583.398 571.2Z" fill="#455A64"/>
<path d="M569.898 566.6L572.198 568.1C579.798 573.1 589.998 571 594.998 563.5L730.698 358.7C735.698 351.1 733.698 340.9 726.098 335.9L723.798 334.4C716.298 329.4 706.098 331.4 701.098 339L565.298 543.8C560.298 551.4 562.398 561.6 569.898 566.6Z" fill="#455A64"/>
<path d="M467.699 480.101C468.099 480.101 481.699 493.401 484.899 502.401C488.099 511.401 492.299 533.401 494.199 541.701C496.899 553.201 501.099 564.201 516.799 564.901L576.099 565.201C579.699 565.201 583.099 563.301 585.099 560.301L636.999 480.101H620.799L575.499 547.601H524.099C520.499 547.601 517.099 546.001 514.899 543.201C514.199 542.201 513.599 541.201 513.299 540.001C512.199 535.401 508.099 511.401 503.199 500.901C498.199 490.501 491.299 480.101 491.299 480.101H467.699Z" fill="#263238"/>
<path d="M521.8 556.3C521.8 558.3 520.2 560 518.1 560C516.1 560 514.5 558.3 514.5 556.3C514.5 554.3 516.1 552.7 518.1 552.7C520.2 552.7 521.8 554.3 521.8 556.3Z" fill="#455A64"/>
<path d="M579.101 556.3C579.101 558.3 577.501 560 575.501 560C573.501 560 571.801 558.3 571.801 556.3C571.801 554.3 573.501 552.7 575.501 552.7C577.501 552.7 579.101 554.3 579.101 556.3Z" fill="#455A64"/>
<path d="M647.599 480.101H454.299C451.499 480.101 449.199 477.801 449.199 475.001V474.101C449.199 471.301 451.499 469.001 454.299 469.001H647.599C650.399 469.001 652.699 471.301 652.699 474.101V475.001C652.699 477.801 650.399 480.101 647.599 480.101Z" fill="#263238"/>
<path d="M533.8 469.001C533.8 469.067 533.6 469.101 533.2 469.101C532.867 469.101 532.4 469.134 531.8 469.201C530.4 469.201 528.467 469.234 526 469.301C520.8 469.301 513.5 469.401 504.3 469.501C495 469.601 483.9 469.701 471.3 469.701C468.167 469.634 464.933 469.601 461.6 469.601C458.3 469.601 454.7 468.901 451.8 470.601C450.5 471.501 449.6 473.001 450 474.701C450.3 476.301 451.7 477.501 453.2 478.201C456.4 479.501 460.2 479.701 463.9 479.601C476.2 479.601 489.5 479.601 503.2 479.501C542.8 479.601 578.6 479.701 604.6 479.701C617.6 479.801 628 479.801 635.4 479.901C638.933 479.901 641.7 479.934 643.7 480.001C644.633 480.001 645.367 480.001 645.9 480.001C646.367 480.001 646.6 480.034 646.6 480.101C646.6 480.101 646.367 480.101 645.9 480.101C645.367 480.101 644.633 480.134 643.7 480.201C641.7 480.201 638.933 480.234 635.4 480.301C628 480.301 617.6 480.401 604.6 480.401C578.6 480.501 542.8 480.501 503.2 480.601C489.5 480.601 476.2 480.601 463.9 480.601H464C460.1 480.701 456.3 480.601 452.8 479.001C451.1 478.301 449.4 476.901 449.1 474.801C449.1 474.401 449 473.901 449 473.401C449.067 472.867 449.2 472.401 449.4 472.001C449.8 471.101 450.5 470.301 451.3 469.801C453 468.901 454.8 468.601 456.5 468.601C458.3 468.601 459.9 468.701 461.6 468.701C464.933 468.767 468.167 468.801 471.3 468.801C483.9 468.901 495 468.901 504.3 468.901C513.5 468.901 520.8 468.901 526 468.901C528.467 468.967 530.4 469.001 531.8 469.001C532.4 469.001 532.867 469.001 533.2 469.001C533.6 469.001 533.8 469.001 533.8 469.001Z" fill="#455A64"/>
<path d="M491.699 530C491.599 530 491.399 529.2 490.999 527.9C490.599 526.3 490.099 524.367 489.499 522.1C488.199 517.2 486.699 510.3 483.999 503.1C482.599 499.5 481.099 496.2 479.399 493.3C477.699 490.5 475.899 488.1 474.299 486.2C470.999 482.4 468.499 480.4 468.699 480.2C468.699 480.2 469.299 480.6 470.399 481.5C471.599 482.4 473.099 483.8 474.799 485.7C476.599 487.6 478.399 490 480.199 492.8C481.999 495.7 483.599 499.1 484.999 502.7C487.699 510 489.099 516.9 490.199 521.9C490.799 524.4 491.199 526.4 491.399 527.8C491.699 529.2 491.799 530 491.699 530Z" fill="#455A64"/>
<path d="M498.699 733.8H485.699V571.2H498.699V733.8Z" fill="#263238"/>
<path d="M495.996 707.8L630.096 734.1V748.1L495.996 727.9V707.8Z" fill="#263238"/>
<path d="M630.097 758.2C630.097 764.8 624.797 770.1 618.197 770.1C611.597 770.1 606.297 764.8 606.297 758.2C606.297 751.7 611.597 746.4 618.197 746.4C624.797 746.4 630.097 751.7 630.097 758.2Z" fill="#263238"/>
<path d="M492.598 707.8L384.098 734.2V748.2L492.598 726.7V707.8Z" fill="#263238"/>
<path d="M384.098 758.2C384.098 764.8 389.398 770.1 395.998 770.1C402.498 770.1 407.898 764.8 407.898 758.2C407.898 751.7 402.498 746.4 395.998 746.4C389.398 746.4 384.098 751.7 384.098 758.2Z" fill="#263238"/>
<path d="M480.297 758.2C480.297 764.8 485.697 770.1 492.197 770.1C498.797 770.1 504.097 764.8 504.097 758.2C504.097 751.7 498.797 746.4 492.197 746.4C485.697 746.4 480.297 751.7 480.297 758.2Z" fill="#263238"/>
<path d="M505.697 746.4H478.797L479.097 644.7H505.997L505.697 746.4Z" fill="#263238"/>
<path d="M504.998 644.9C504.998 645.2 499.298 645.4 492.298 645.4C485.298 645.4 479.598 645.2 479.598 644.9C479.598 644.6 485.298 644.4 492.298 644.4C499.298 644.4 504.998 644.6 504.998 644.9Z" fill="#455A64"/>
<path d="M504.199 729.101C504.199 729.401 498.499 729.701 491.399 729.701C484.399 729.701 478.699 729.401 478.699 729.101C478.699 728.901 484.399 728.601 491.399 728.601C498.499 728.601 504.199 728.901 504.199 729.101Z" fill="#455A64"/>
<path d="M40.1016 409.1V436.9H677.202V409.1H40.1016Z" fill="#455A64"/>
<path d="M175.102 409.5C175.102 409.5 175.035 409.6 174.902 409.8C174.702 410 174.468 410.267 174.202 410.6C173.602 411.3 172.602 412.3 171.002 413.2C169.402 414.1 167.302 414.8 164.802 415.2C162.302 415.7 159.402 415.7 156.302 415.6C153.102 415.5 149.602 415 145.902 414.4C142.202 413.8 138.302 413.1 134.102 413C125.802 412.7 116.702 414.9 107.702 418.2C98.6016 421.4 90.1016 425.1 81.9016 427.3C77.9016 428.5 74.0016 429.3 70.2016 429.7C66.5016 430.1 63.0016 430 59.8016 429.7C53.4016 429 48.6016 426.9 45.5016 425.1C42.5016 423.2 41.1016 421.8 41.1016 421.8C41.1016 421.8 41.2016 421.867 41.4016 422C41.6682 422.133 41.9682 422.333 42.3016 422.6C43.0016 423.2 44.1016 424 45.7016 424.8C48.7016 426.6 53.6016 428.5 59.9016 429.1C63.0016 429.4 66.5016 429.4 70.2016 429C73.8016 428.6 77.7016 427.8 81.8016 426.7C89.8016 424.4 98.3016 420.7 107.402 417.4C116.502 414.1 125.702 412 134.202 412.3C138.402 412.4 142.302 413.2 146.002 413.8C149.702 414.4 153.102 414.9 156.302 415.1C159.402 415.2 162.302 415.2 164.802 414.8C167.202 414.5 169.302 413.7 170.802 412.9C173.902 411.2 175.002 409.4 175.102 409.5Z" fill="#263238"/>
<path d="M105.402 409.9C105.402 409.9 104.702 410.5 103.402 411.5C102.202 412.5 100.202 413.9 97.6016 415.3C95.0016 416.6 91.8016 418.1 88.1016 419.1C84.4016 420.2 80.2016 420.9 75.7016 421.1C66.7016 421.4 58.7016 419.1 53.5016 416.5C50.9016 415.2 49.0016 413.5 48.1016 412.1C47.7016 411.4 47.4016 410.8 47.3016 410.4C47.1682 410 47.1016 409.8 47.1016 409.8C47.2016 409.8 47.4016 410.7 48.4016 411.9C49.3016 413.2 51.1016 414.8 53.7016 416C58.9016 418.4 66.8016 420.6 75.7016 420.3C80.1016 420.2 84.2016 419.5 87.9016 418.4C91.6016 417.4 94.8016 416.1 97.4016 414.8C99.9016 413.5 101.902 412.2 103.302 411.3C104.602 410.3 105.302 409.8 105.402 409.9Z" fill="#263238"/>
<path d="M254.9 427.5C254.9 427.5 255.233 427.633 255.9 427.9C256.5 428.1 257.5 428.5 258.8 428.7C261.4 429.1 265.5 429.3 269.9 426.9V427.3C266.6 424.7 261.8 422.4 256.1 421.9C250.4 421.4 243.7 422.6 238.1 426.6C237.4 427.1 236.8 427.7 236.7 428.4C236.6 429.1 237.2 429.8 237.9 430.2C238.6 430.6 239.5 430.9 240.4 431.1C241.267 431.3 242.167 431.5 243.1 431.7C246.7 432.5 250.5 433.3 254.4 433.9C258.3 434.4 262.3 434.8 266.4 434.7C268.467 434.633 270.533 434.433 272.6 434.1C273.6 433.9 274.633 433.666 275.7 433.4C276.7 433.2 277.667 432.9 278.6 432.5C280.1 431.8 281.5 430.9 282.5 429.7C283.5 428.5 283.8 426.8 283.2 425.4C282.7 424 281.5 422.9 280.2 422C278.9 421.2 277.4 420.5 276 420C270.1 417.6 264.1 416.6 258.3 416.3C246.7 415.6 236.3 417.8 228.1 421C219.9 424.1 213.8 428 209.9 430.9C208 432.4 206.5 433.6 205.5 434.5C205.033 434.9 204.667 435.2 204.4 435.4C204.133 435.6 204 435.7 204 435.7C204 435.7 204.1 435.6 204.3 435.4C204.567 435.133 204.933 434.766 205.4 434.3C206.3 433.4 207.8 432.2 209.7 430.7C213.6 427.6 219.6 423.7 227.9 420.4C236.1 417.2 246.6 414.9 258.3 415.6C264.2 415.9 270.3 416.9 276.3 419.2C277.7 419.8 279.2 420.5 280.6 421.4C282 422.3 283.4 423.5 284 425.1C284.6 426.8 284.2 428.8 283.1 430.2C282 431.6 280.5 432.5 279 433.2C278 433.6 276.9 434 275.9 434.2C274.833 434.466 273.767 434.7 272.7 434.9C270.633 435.233 268.533 435.433 266.4 435.5C262.3 435.6 258.2 435.2 254.3 434.6C250.4 434 246.6 433.2 242.9 432.4C242.033 432.2 241.133 432 240.2 431.8C239.3 431.6 238.4 431.3 237.5 430.8C237.1 430.6 236.7 430.2 236.4 429.8C236.1 429.4 236 428.8 236 428.3C236.2 427.2 237 426.5 237.7 426C243.5 421.9 250.4 420.7 256.1 421.3C262 421.9 266.8 424.3 270.2 427L270.4 427.2L270.1 427.3C265.6 429.7 261.3 429.4 258.8 428.9C256.1 428.3 254.9 427.5 254.9 427.5Z" fill="#263238"/>
<path d="M336.803 410.199C336.903 410.199 337.203 410.599 337.503 411.599C337.803 412.499 338.103 413.999 337.903 415.799C337.703 419.399 335.503 424.099 331.703 427.899C329.903 429.899 327.903 431.599 325.903 432.899C323.903 434.099 322.003 434.999 320.303 435.599C318.603 436.099 317.203 436.399 316.203 436.599C315.303 436.699 314.703 436.799 314.703 436.699C314.703 436.599 316.903 436.299 320.103 434.999C321.703 434.399 323.603 433.499 325.503 432.299C327.403 430.999 329.303 429.299 331.103 427.399C334.803 423.599 337.003 419.099 337.303 415.699C337.803 412.299 336.703 410.199 336.803 410.199Z" fill="#263238"/>
<path d="M451.303 435.4C451.203 435.5 450.403 434.3 448.303 432.6C446.303 431 443.003 428.8 438.403 428.1C436.103 427.7 433.503 427.8 430.803 428.3C428.103 428.8 425.103 429.5 421.903 429.1C418.603 428.8 415.703 426.9 413.003 424.8C410.403 422.7 407.503 420.7 404.103 419.5C397.403 417.1 390.303 417.5 384.403 419.2C378.403 420.9 373.603 423.9 369.803 426.6C366.003 429.4 363.203 432 361.303 433.9C360.436 434.767 359.703 435.467 359.103 436C358.636 436.467 358.403 436.7 358.403 436.7C358.336 436.7 358.536 436.433 359.003 435.9C359.47 435.367 360.17 434.6 361.103 433.6C362.903 431.7 365.703 429 369.403 426.2C373.203 423.4 378.103 420.3 384.203 418.5C390.203 416.8 397.503 416.3 404.403 418.8C407.903 420 410.903 422.1 413.503 424.2C416.203 426.3 418.903 428.1 422.003 428.4C425.003 428.8 427.903 428.1 430.703 427.7C433.403 427.2 436.103 427.1 438.503 427.6C443.203 428.4 446.603 430.6 448.503 432.4C450.503 434.1 451.303 435.4 451.303 435.4Z" fill="#263238"/>
<path d="M553.401 409.3C553.401 409.366 553.167 409.7 552.701 410.3C552.201 410.9 551.601 411.8 550.501 412.9C548.601 415.1 545.501 418 541.201 421.1C537.001 424.2 531.601 427.5 525.101 430.1C521.901 431.4 518.401 432.6 514.701 433.4C511.001 434.2 507.101 434.9 503.001 434.9C495.001 434.9 487.401 432.9 481.001 430.3C474.501 427.6 469.101 424.4 464.901 421.2C460.701 418 457.601 415.1 455.701 412.9C454.701 411.8 454.001 410.9 453.501 410.3C453.034 409.7 452.801 409.366 452.801 409.3C452.801 409.3 453.067 409.6 453.601 410.2C454.101 410.7 454.801 411.6 455.901 412.6C457.901 414.8 461.001 417.7 465.201 420.7C469.401 423.8 474.801 427 481.201 429.6C487.601 432.2 495.101 434.2 503.001 434.1C507.001 434.1 510.901 433.5 514.501 432.6C518.201 431.8 521.601 430.7 524.801 429.4C531.201 426.8 536.701 423.7 540.901 420.7C545.201 417.6 548.301 414.8 550.301 412.7C551.401 411.6 552.101 410.7 552.601 410.2C553.134 409.6 553.401 409.3 553.401 409.3Z" fill="#263238"/>
<path d="M538.803 409.1C538.803 409.1 538.636 409.233 538.303 409.5C537.903 409.8 537.403 410.2 536.603 410.6C535.203 411.6 533.003 412.8 530.203 414.2C527.503 415.6 524.103 417.1 520.203 418.3C516.203 419.5 511.803 420.6 507.003 420.6C497.403 420.5 489.203 417.4 483.603 414.7C480.903 413.3 478.703 412 477.303 411C476.603 410.5 476.103 410.1 475.703 409.8C475.37 409.533 475.203 409.366 475.203 409.3C475.203 409.3 476.003 409.8 477.503 410.7C478.903 411.6 481.103 412.9 483.903 414.2C489.403 416.8 497.603 419.7 507.003 419.8C511.703 419.8 516.103 418.8 519.903 417.6C523.803 416.5 527.203 415 530.003 413.7C532.803 412.4 535.003 411.2 536.503 410.3C538.003 409.5 538.803 409 538.803 409.1Z" fill="#263238"/>
<path d="M650.201 411.9C650.201 411.9 649.801 411.9 649.001 411.9C648.001 411.9 646.801 411.866 645.401 411.8C644.601 411.733 643.734 411.7 642.801 411.7C641.801 411.7 640.768 411.7 639.701 411.7C637.501 411.6 635.001 411.6 632.201 411.7C630.801 411.766 629.334 411.833 627.801 411.9C626.268 411.966 624.701 412.066 623.101 412.2C619.801 412.3 616.401 412.8 612.801 413.1C605.601 414.1 597.801 415.3 589.801 417.1C581.901 418.9 574.701 421.1 568.301 423.3C565.201 424.4 562.201 425.4 559.601 426.6C558.268 427.133 556.968 427.666 555.701 428.2C554.568 428.733 553.434 429.266 552.301 429.8C550.101 430.8 548.301 431.8 546.701 432.7C545.834 433.1 545.068 433.5 544.401 433.9C543.734 434.233 543.134 434.566 542.601 434.9C541.534 435.5 540.668 436 540.001 436.4C539.401 436.733 539.101 436.9 539.101 436.9C539.034 436.9 539.268 436.7 539.801 436.3C540.468 435.9 541.268 435.366 542.201 434.7C542.734 434.366 543.301 434 543.901 433.6C544.568 433.2 545.301 432.766 546.101 432.3C547.701 431.4 549.501 430.4 551.701 429.4C552.768 428.866 553.901 428.3 555.101 427.7C556.368 427.166 557.634 426.633 558.901 426.1C561.501 424.9 564.601 423.8 567.701 422.6C574.101 420.4 581.301 418.2 589.301 416.4C597.301 414.6 605.201 413.3 612.501 412.4C616.201 412.1 619.701 411.7 623.001 411.5C624.601 411.433 626.168 411.366 627.701 411.3C629.234 411.233 630.701 411.2 632.101 411.2C634.901 411.1 637.501 411.2 639.701 411.2C640.834 411.266 641.868 411.3 642.801 411.3C643.734 411.366 644.601 411.433 645.401 411.5C646.868 411.566 648.068 411.666 649.001 411.8C649.801 411.866 650.201 411.9 650.201 411.9Z" fill="#263238"/>
<path d="M462.7 434.899C462.6 434.999 461.7 433.199 459.2 430.699C456.7 428.299 452.4 425.399 446.4 423.499C443.4 422.599 440 421.899 436.3 421.299C432.7 420.799 428.7 420.299 424.6 419.599C420.5 418.899 416.2 417.699 411.9 416.399C407.6 415.099 403.1 413.699 398.3 413.099C388.8 411.899 379.6 413.899 371.9 416.799C368 418.199 364.4 419.899 361.1 421.599C357.8 423.299 354.8 424.999 352.1 426.499C346.6 429.599 342.2 432.299 339.2 434.099C337.733 434.966 336.6 435.666 335.8 436.199C335.4 436.399 335.1 436.599 334.9 436.799C334.633 436.866 334.5 436.899 334.5 436.899C334.5 436.899 334.6 436.833 334.8 436.699C335.067 436.499 335.367 436.299 335.7 436.099C336.433 435.566 337.567 434.799 339.1 433.799C342 431.899 346.4 429.199 351.8 425.999C354.5 424.399 357.6 422.699 360.8 420.999C364.1 419.299 367.7 417.599 371.6 416.099C379.4 413.199 388.7 411.099 398.4 412.299C403.3 412.899 407.8 414.399 412.1 415.699C416.5 416.999 420.7 418.199 424.8 418.899C428.8 419.599 432.8 420.099 436.4 420.699C440.1 421.299 443.5 421.999 446.5 422.999C452.6 424.999 456.9 427.999 459.4 430.499C461.9 432.999 462.7 434.899 462.7 434.899Z" fill="#263238"/>
<path d="M319.203 409.5C319.203 409.5 319.303 410.1 319.103 411.2C319.003 412.4 318.603 414 317.903 415.9C316.403 419.7 313.403 424.9 308.103 428.5C302.803 431.9 297.403 433.8 293.603 435.2C291.603 435.8 290.003 436.3 288.903 436.6C287.803 436.8 287.203 437 287.203 436.9C287.203 436.9 287.803 436.6 288.803 436.3C290.07 435.833 291.603 435.267 293.403 434.6C297.203 433.2 302.403 431.2 307.603 427.8C312.703 424.4 315.803 419.4 317.303 415.7C318.903 412 319.003 409.4 319.203 409.5Z" fill="#263238"/>
<path d="M171.301 436.9C171.301 436.9 171.801 436.3 172.801 435.4C173.901 434.5 175.401 433.2 177.401 431.7C181.301 428.7 187.001 424.9 193.601 421.2C200.301 417.6 206.401 414.7 210.901 412.6C213.201 411.6 215.001 410.8 216.301 410.2C217.501 409.7 218.301 409.4 218.301 409.5C218.301 409.5 217.601 409.9 216.401 410.5C215.001 411.166 213.267 412.033 211.201 413.1C206.701 415.3 200.601 418.3 194.001 421.9C187.401 425.6 181.701 429.3 177.701 432.2C175.701 433.6 174.101 434.8 173.001 435.7C172.001 436.5 171.301 437 171.301 436.9Z" fill="#263238"/>
<path d="M201.303 410.6C201.303 410.7 199.803 410.4 197.203 410.6C194.603 410.8 190.803 411.7 186.603 413.8C182.303 415.9 177.803 419.4 172.803 423.1C170.203 425 167.503 426.9 164.503 428.5C161.403 430.1 158.003 431.4 154.503 432.3C147.403 434.2 140.403 434.6 134.203 434.8C127.903 435 122.203 434.8 117.503 435C112.703 435.2 108.903 435.7 106.303 436.1C104.97 436.366 103.97 436.566 103.303 436.7C102.636 436.9 102.27 436.967 102.203 436.9C102.203 436.9 102.57 436.8 103.303 436.6C103.97 436.4 104.936 436.133 106.203 435.8C108.803 435.3 112.703 434.7 117.403 434.5C122.203 434.2 127.903 434.3 134.103 434.1C140.403 433.8 147.303 433.4 154.303 431.6C157.803 430.6 161.103 429.4 164.103 427.8C167.103 426.2 169.803 424.4 172.303 422.5C177.403 418.8 182.003 415.4 186.303 413.4C190.603 411.2 194.503 410.4 197.203 410.3C198.503 410.3 199.603 410.3 200.303 410.4C200.97 410.533 201.303 410.6 201.303 410.6Z" fill="#263238"/>
<path d="M98.7 770.8H89.7L84.5 434.8H103.9L98.7 770.8Z" fill="#455A64"/>
<path d="M682.398 770.1H673.398L677.898 435.7H697.198L682.398 770.1Z" fill="#263238"/>
<path d="M727.601 436.9H646.801V409H727.601V436.9Z" fill="#263238"/>
<path d="M312.3 120.2C312.3 164.4 276.4 200.3 232.1 200.3C187.9 200.3 152 164.4 152 120.2C152 75.9 187.9 40 232.1 40C276.4 40 312.3 75.9 312.3 120.2Z" fill="black"/>
<path d="M156.302 114.8C159.102 73.1 195.102 41.5 236.802 44.2C278.502 47 310.102 83 307.302 124.7C304.602 166.4 268.602 198 226.902 195.2C185.202 192.5 153.602 156.5 156.302 114.8Z" fill="#FAFAFA"/>
<path d="M156.302 114.8C156.302 114.8 156.335 115.2 156.402 116C156.402 116.866 156.402 118.066 156.402 119.6C156.402 120.4 156.368 121.3 156.302 122.3C156.402 123.2 156.502 124.3 156.602 125.4C156.735 126.6 156.868 127.866 157.002 129.2C157.002 130.5 157.402 131.9 157.702 133.3C158.602 139.3 160.902 146.3 164.702 153.9C168.602 161.5 174.402 169.5 182.502 176.5C183.502 177.366 184.502 178.233 185.502 179.1C186.602 179.9 187.802 180.7 188.902 181.5C190.102 182.3 191.202 183.2 192.502 183.9C193.702 184.566 194.935 185.266 196.202 186L198.202 187.1L200.202 188C201.535 188.6 202.902 189.2 204.302 189.8C205.702 190.3 207.202 190.7 208.702 191.2C210.102 191.7 211.602 192.3 213.102 192.6C216.202 193.2 219.302 194.1 222.602 194.3C224.202 194.5 225.802 194.7 227.402 194.8C229.068 194.8 230.735 194.833 232.402 194.9C233.302 194.9 234.102 194.9 234.902 194.9L237.502 194.7C239.102 194.5 240.902 194.4 242.602 194.2C245.902 193.5 249.402 193 252.802 191.9C256.202 191 259.502 189.6 262.802 188.2C264.502 187.5 266.002 186.6 267.702 185.7C268.502 185.3 269.302 184.9 270.102 184.4L272.402 182.9C275.602 181 278.402 178.6 281.402 176.2C284.102 173.6 286.902 171.1 289.302 168L291.202 165.8L292.902 163.5L294.502 161.1C295.102 160.3 295.635 159.466 296.102 158.6C297.035 156.933 298.002 155.233 299.002 153.5C299.802 151.7 300.602 149.9 301.402 148.1C304.302 140.7 306.202 132.8 306.802 124.7C307.202 116.5 306.402 108.5 304.502 100.8C303.968 98.8663 303.402 96.9663 302.802 95.0997C302.068 93.233 301.335 91.3997 300.602 89.5997C300.268 88.6663 299.868 87.7997 299.402 86.9997L298.102 84.3997L296.702 81.7997L295.102 79.3997C293.202 76.0997 290.702 73.1997 288.402 70.1997C285.702 67.4997 283.202 64.6997 280.302 62.3997L278.202 60.5997C277.502 59.9997 276.702 59.4997 276.002 58.9997C274.502 57.9997 273.002 56.8997 271.502 55.8997C268.402 54.0997 265.302 52.2997 262.002 50.9997C258.802 49.3997 255.502 48.4997 252.202 47.3997C250.502 46.8997 248.902 46.5997 247.202 46.1997L244.702 45.6997C243.902 45.4997 243.102 45.4997 242.202 45.2997C240.535 45.0997 238.902 44.933 237.302 44.7997C235.602 44.5997 234.002 44.6997 232.402 44.5997C229.102 44.3997 225.902 44.8997 222.802 45.0997C221.202 45.1997 219.702 45.5997 218.202 45.7997C216.702 46.0997 215.202 46.2997 213.702 46.6997C212.235 47.1663 210.802 47.5997 209.402 47.9997C208.668 48.1997 207.935 48.3997 207.202 48.5997C206.535 48.8663 205.868 49.133 205.202 49.3997C203.868 49.933 202.535 50.4663 201.202 50.9997C199.802 51.4997 198.602 52.2997 197.402 52.8997C196.102 53.5997 194.902 54.1997 193.702 54.7997C192.568 55.5997 191.435 56.333 190.302 56.9997C181.302 62.8997 174.602 70.0997 169.802 77.0997C165.002 84.0997 161.802 90.7997 160.102 96.5997C159.702 97.9997 159.102 99.2997 158.802 100.6C158.535 101.933 158.268 103.166 158.002 104.3C157.802 105.4 157.502 106.4 157.302 107.4C157.168 108.333 157.068 109.2 157.002 110C156.802 111.533 156.635 112.733 156.502 113.6C156.368 114.4 156.302 114.8 156.302 114.8C156.302 114.8 156.335 114.4 156.402 113.6C156.468 112.733 156.602 111.533 156.802 110C156.868 109.2 156.968 108.3 157.102 107.3C157.202 106.4 157.502 105.3 157.702 104.2C157.968 103.066 158.235 101.833 158.502 100.5C158.702 99.1997 159.302 97.8997 159.702 96.3997C161.402 90.6997 164.502 83.8997 169.302 76.7997C174.102 69.6997 180.902 62.3997 189.902 56.3997C191.035 55.6663 192.168 54.933 193.302 54.1997C194.502 53.4997 195.802 52.8997 197.002 52.1997C198.302 51.5997 199.502 50.7997 200.902 50.2997C202.235 49.7663 203.568 49.233 204.902 48.6997C205.568 48.433 206.268 48.133 207.002 47.7997C207.668 47.5997 208.368 47.3997 209.102 47.1997C210.568 46.7997 212.035 46.3663 213.502 45.8997C215.002 45.4997 216.502 45.2997 218.002 44.9997C219.602 44.6997 221.102 44.2997 222.702 44.1997C225.902 43.9997 229.102 43.4997 232.402 43.6997C234.002 43.7997 235.702 43.6997 237.302 43.8997C238.968 44.033 240.668 44.1997 242.402 44.3997C243.202 44.4997 244.002 44.5997 244.902 44.7997L247.402 45.2997C249.102 45.6997 250.802 45.9997 252.502 46.4997C255.802 47.5997 259.202 48.4997 262.402 50.0997C265.702 51.3997 268.802 53.2997 272.002 55.0997C273.602 55.9997 275.102 57.1997 276.602 58.1997C277.302 58.7997 278.102 59.1997 278.802 59.7997L281.002 61.6997C283.902 63.9997 286.502 66.7997 289.102 69.4997C291.502 72.4997 294.002 75.4997 296.002 78.7997L297.602 81.2997L299.002 83.8997L300.302 86.4997C300.835 87.3663 301.268 88.2663 301.602 89.1997C302.335 91.0663 303.068 92.8997 303.802 94.6997C304.402 96.633 304.968 98.5663 305.502 100.5C307.502 108.3 308.302 116.5 307.902 124.7C307.202 133 305.302 141 302.302 148.5C301.502 150.3 300.702 152.133 299.902 154C298.902 155.733 297.935 157.466 297.002 159.2C296.535 160.066 296.002 160.9 295.402 161.7L293.702 164.1L292.002 166.5L290.102 168.7C287.702 171.8 284.802 174.3 282.102 177C279.102 179.4 276.202 181.8 272.902 183.8L270.602 185.3C269.802 185.8 269.002 186.2 268.202 186.6C266.502 187.4 264.902 188.4 263.202 189.1C259.802 190.5 256.502 191.9 253.002 192.8C249.602 194 246.102 194.4 242.702 195.1C241.002 195.3 239.202 195.4 237.502 195.6L235.002 195.8C234.102 195.8 233.302 195.8 232.402 195.8C230.735 195.733 229.068 195.7 227.402 195.7C225.702 195.6 224.102 195.3 222.402 195.2C219.202 194.9 216.002 194.1 212.902 193.4C211.302 193.1 209.902 192.5 208.402 192.1C206.902 191.5 205.402 191.1 204.002 190.6C202.602 189.933 201.202 189.3 199.802 188.7C199.135 188.366 198.468 188.066 197.802 187.8L195.902 186.7C194.568 185.966 193.268 185.233 192.002 184.5C190.802 183.9 189.702 182.9 188.502 182.1C187.302 181.3 186.202 180.5 185.102 179.7C184.035 178.833 183.002 177.933 182.002 177C173.802 169.9 168.102 161.8 164.202 154.2C160.402 146.5 158.202 139.4 157.302 133.4C157.102 131.9 156.702 130.5 156.602 129.2C156.468 127.866 156.368 126.633 156.302 125.5C156.202 124.3 156.102 123.3 156.102 122.3C156.102 121.3 156.135 120.4 156.202 119.6C156.202 118.066 156.235 116.866 156.302 116C156.302 115.2 156.302 114.8 156.302 114.8Z" fill="#263238"/>
<path d="M231.603 56.5C231.903 56.5 232.103 59.4 232.103 62.9C232.103 66.4 231.903 69.2 231.603 69.2C231.403 69.2 231.203 66.4 231.203 62.9C231.203 59.4 231.403 56.5 231.603 56.5Z" fill="#263238"/>
<path d="M266.1 66.7C266.3 66.9 264.5 69 262 71.5C259.6 73.9 257.4 75.8 257.3 75.6C257.1 75.4 258.9 73.2 261.3 70.8C263.8 68.4 265.9 66.5 266.1 66.7Z" fill="#263238"/>
<path d="M286.302 88.7001C286.402 89.0001 284.002 90.4001 281.102 92.2001C278.102 94.0001 275.702 95.5001 275.602 95.2001C275.402 95.0001 277.602 93.2001 280.602 91.4001C283.502 89.6001 286.202 88.5001 286.302 88.7001Z" fill="#263238"/>
<path d="M298.101 121.399C298.101 121.699 294.201 121.899 289.401 121.899C284.601 121.899 280.801 121.699 280.801 121.399C280.801 121.099 284.601 120.899 289.401 120.899C294.201 120.899 298.101 121.099 298.101 121.399Z" fill="#263238"/>
<path d="M177.9 120.3C177.9 120.5 174.2 120.8 169.7 120.8C165.2 120.8 161.5 120.5 161.5 120.3C161.5 120 165.2 119.8 169.7 119.8C174.2 119.8 177.9 120 177.9 120.3Z" fill="#263238"/>
<path d="M186.401 144.6C186.601 144.8 183.801 147.3 180.201 150.2C176.601 153.1 173.601 155.3 173.401 155C173.301 154.8 176.001 152.3 179.601 149.4C183.201 146.6 186.201 144.4 186.401 144.6Z" fill="#263238"/>
<path d="M207.402 163.4C207.602 163.6 205.502 166.7 203.202 170.7C200.802 174.7 198.902 178 198.702 177.8C198.502 177.7 199.902 174.2 202.302 170.2C204.702 166.2 207.202 163.2 207.402 163.4Z" fill="#263238"/>
<path d="M231.603 187.7C231.403 187.7 231.203 183.8 231.203 179C231.203 174.2 231.403 170.3 231.603 170.3C231.903 170.3 232.103 174.2 232.103 179C232.103 183.8 231.903 187.7 231.603 187.7Z" fill="#263238"/>
<path d="M269 176.1C268.9 176.3 265.5 174.4 261.9 171.2C258.2 168.1 255.8 165 256 164.8C256.2 164.6 258.9 167.4 262.5 170.5C266.1 173.6 269.2 175.9 269 176.1Z" fill="#263238"/>
<path d="M286.502 157.2C286.302 157.4 283.802 155.2 280.802 152.2C277.802 149.2 275.602 146.6 275.702 146.5C275.902 146.3 278.502 148.5 281.502 151.5C284.502 154.5 286.702 157 286.502 157.2Z" fill="#263238"/>
<path d="M185.602 97.0001C185.402 97.1001 183.202 95.2001 180.502 92.6001C177.902 90.0001 176.002 87.7001 176.202 87.5001C176.402 87.3001 178.602 89.3001 181.202 91.9001C183.802 94.5001 185.802 96.8001 185.602 97.0001Z" fill="#263238"/>
<path d="M207.203 74.1995C207.103 74.3995 204.803 72.3995 202.303 69.8995C199.703 67.2995 197.803 65.0995 198.003 64.8995C198.203 64.6995 200.403 66.6995 203.003 69.1995C205.503 71.7995 207.403 73.9995 207.203 74.1995Z" fill="#263238"/>
<path d="M231.801 79.8994C231.901 79.8994 232.001 80.8994 232.001 82.5994C232.067 84.5994 232.134 87.0661 232.201 89.9994C232.301 96.2994 232.401 104.899 232.401 114.399C232.334 116.266 232.301 118.033 232.301 119.699V120.599L231.601 120.199C224.201 116.499 217.801 113.099 213.101 110.699C210.967 109.566 209.167 108.599 207.701 107.799C206.501 107.099 205.801 106.699 205.801 106.699C205.901 106.599 206.601 106.899 207.901 107.499C209.367 108.166 211.201 109.033 213.401 110.099C218.101 112.399 224.701 115.599 232.101 119.299L231.301 119.699C231.301 118.033 231.301 116.266 231.301 114.399C231.301 104.899 231.401 96.2994 231.501 89.9994C231.567 87.0661 231.601 84.5994 231.601 82.5994C231.701 80.8994 231.801 79.8994 231.801 79.8994Z" fill="#263238"/>
<path d="M259.299 322.799L295.899 403.799C297.399 407.099 302.099 409.899 305.699 409.899L474.699 409.699C474.299 406.099 471.299 403.399 467.699 403.399L403.599 401.999L370.799 323.199C369.799 320.699 367.299 318.999 364.599 318.999L262.299 318.199C259.899 318.199 258.299 320.599 259.299 322.799Z" fill="#E0E0E0"/>
<path d="M259.3 322.8C259.3 322.8 259.1 322.5 259 321.8C258.9 321.2 259 320.1 259.9 319.1C260.4 318.6 261.1 318.3 261.9 318.2C262.7 318.1 263.5 318.1 264.5 318.1C266.367 318.1 268.533 318.1 271 318.1C280.9 318.2 295.2 318.2 313.1 318.3C322.1 318.4 332 318.4 342.7 318.5C348.033 318.5 353.567 318.533 359.3 318.6C360.767 318.6 362.233 318.6 363.7 318.6C365.1 318.5 366.8 318.7 368.1 319.6C369.5 320.3 370.6 321.6 371.2 323.1C371.8 324.433 372.4 325.8 373 327.2C382.4 349.8 392.9 374.9 404.1 401.8L403.6 401.4C414.8 401.7 426.4 401.9 438.3 402.2C444.233 402.333 450.233 402.466 456.3 402.6C459.367 402.666 462.433 402.733 465.5 402.8H467.8C468.667 402.866 469.467 403.033 470.2 403.3C471.8 403.9 473.1 405 474 406.4C474.7 407.4 475.1 408.5 475.2 409.6L475.3 410.2H474.7C437.3 410.2 401.8 410.3 369.5 410.3C353.3 410.3 338 410.3 323.6 410.3C320 410.3 316.467 410.3 313 410.3C311.267 410.3 309.567 410.3 307.9 410.3C307 410.3 306.2 410.3 305.3 410.3C304.433 410.233 303.6 410.066 302.8 409.8C299.6 408.7 296.6 406.5 295.3 403.4C294.033 400.466 292.767 397.633 291.5 394.9C281.5 372.6 273.4 354.6 267.8 342.1C265.1 335.9 262.9 331.1 261.5 327.8C260.767 326.2 260.2 324.966 259.8 324.1C259.467 323.233 259.3 322.8 259.3 322.8C259.3 322.8 259.5 323.2 259.9 324C260.3 324.866 260.9 326.1 261.7 327.7C263.2 331 265.4 335.8 268.2 342C273.9 354.4 282.1 372.4 292.2 394.6C293.467 397.333 294.733 400.166 296 403.1C297.2 406 300 408 303 409C304.5 409.6 306.2 409.5 307.9 409.5C309.567 409.5 311.267 409.5 313 409.5C316.467 409.5 320 409.5 323.6 409.5C338 409.4 353.3 409.4 369.5 409.3C401.8 409.3 437.3 409.2 474.7 409.2L474.2 409.7C474.1 408.8 473.7 407.8 473.2 406.9C472.4 405.7 471.2 404.8 469.9 404.3C469.233 404.033 468.533 403.9 467.8 403.9L465.5 403.8C462.433 403.733 459.367 403.666 456.3 403.6C450.233 403.466 444.233 403.333 438.3 403.2C426.4 403 414.8 402.7 403.6 402.5L403.3 402.4L403.2 402.1C392 375.2 381.5 350.1 372.2 327.6C371.6 326.2 371 324.8 370.4 323.4C369.9 322.1 368.9 321 367.7 320.3C366.5 319.6 365.1 319.4 363.7 319.4C362.233 319.4 360.767 319.4 359.3 319.4C353.567 319.333 348.033 319.266 342.7 319.2C332 319.1 322.1 319 313.1 318.9C295.2 318.7 280.9 318.6 271 318.5C268.533 318.433 266.367 318.4 264.5 318.4C263.5 318.4 262.7 318.3 261.9 318.4C261.1 318.5 260.5 318.8 260 319.2C259.1 320.1 259 321.2 259.1 321.8C259.2 322.5 259.3 322.8 259.3 322.8Z" fill="#263238"/>
<path d="M400.502 410.6C400.435 410.6 400.268 410.3 400.002 409.7C399.668 409.033 399.268 408.167 398.802 407.1C397.702 404.7 396.202 401.4 394.502 397.4C390.902 389.2 386.102 377.8 380.802 365.2C375.602 352.5 371.002 341 367.802 332.7C366.202 328.5 365.002 325.1 364.102 322.7C363.768 321.633 363.468 320.733 363.202 320C363.002 319.333 362.935 319 363.002 319C363.002 319 363.135 319.3 363.402 319.9C363.735 320.633 364.102 321.533 364.502 322.6C365.502 325 366.902 328.4 368.502 332.4C372.002 340.8 376.602 352.2 381.802 364.8C387.002 377.3 391.702 388.7 395.202 397.1C396.802 401.1 398.102 404.5 399.102 406.9C399.568 407.967 399.935 408.867 400.202 409.6C400.402 410.267 400.502 410.6 400.502 410.6Z" fill="#455A64"/>
<path d="M334.201 362.1C334.201 364.9 331.901 367.3 329.001 367.3C326.101 367.3 323.801 364.9 323.801 362.1C323.801 359.2 326.101 356.8 329.001 356.8C331.901 356.8 334.201 359.2 334.201 362.1Z" fill="white"/>
<path d="M598.041 225.368L572.989 181.06C584.206 163.113 590.563 141.8 590.563 119.179C590.563 53.7454 537.469 0.837891 472.223 0.837891C406.79 0.837891 353.883 53.7454 353.883 119.179C353.883 184.425 406.79 237.333 472.223 237.333C499.518 237.333 524.569 228.172 544.573 212.655L598.041 225.368Z" fill="#FAFAFA"/>
<path d="M597.979 225.416C594.614 224.668 578.163 220.929 544.325 213.264C544.138 213.077 543.951 212.89 544.137 212.703C544.137 212.578 544.137 212.516 544.137 212.516V212.329L544.885 213.077C531.425 223.546 512.169 233.828 488.052 237.007C482.07 237.941 475.713 238.315 469.17 238.128C465.992 237.941 462.814 237.754 459.449 237.567C456.084 237.069 452.719 236.57 449.353 236.072C435.893 233.267 422.245 228.22 409.346 220.368C396.633 212.329 384.855 201.673 375.321 188.399C365.786 175.312 358.682 159.608 355.317 142.596C351.952 125.77 352.139 107.449 356.626 89.8754C361.112 72.302 369.525 55.2893 382.051 41.081C394.764 26.6857 410.467 15.0947 427.667 8.55138C445.053 1.63416 463.375 -0.983211 480.948 0.325452C498.521 1.63411 515.347 6.68184 529.742 14.7208C544.138 22.7597 556.289 33.6029 565.824 45.5678C575.171 57.5327 581.902 70.8063 586.015 84.0799C590.128 97.3535 591.062 110.44 591.062 122.592C590.314 147.083 582.089 167.274 573.302 181.295V180.921C589.006 208.964 596.484 222.424 597.979 225.416C596.484 222.424 588.632 209.151 572.554 181.295C572.429 181.17 572.429 181.046 572.554 180.921C581.154 166.713 589.193 146.709 589.754 122.592C589.754 110.44 588.632 97.5404 584.519 84.4538C580.406 71.5541 573.863 58.4675 564.515 46.6896C555.168 34.7246 543.016 24.2553 528.808 16.4033C514.599 8.36439 498.148 3.50363 480.761 2.19497C463.562 0.886307 445.427 3.50367 428.415 10.2339C411.402 16.7773 396.072 28.1813 383.547 42.3896C371.208 56.2241 362.982 73.0498 358.495 90.4363C354.195 107.636 353.821 125.583 357 142.222C360.365 159.048 367.469 174.378 376.816 187.464C386.164 200.364 397.755 211.02 410.281 218.872C422.993 226.724 436.454 231.772 449.727 234.576C453.092 235.075 456.395 235.573 459.636 236.072C462.814 236.259 466.179 236.446 469.357 236.633C475.713 237.007 481.883 236.446 487.865 235.698C511.795 232.52 530.864 222.611 544.325 212.329C544.511 212.142 544.698 212.142 544.885 212.329C545.072 212.516 545.072 212.89 544.885 212.89V213.077L544.698 212.329C578.35 220.555 594.801 224.481 597.979 225.416Z" fill="#263238"/>
<path d="M886 770.8C886 771.1 687.6 771.3 443 771.3C198.3 771.3 0 771.1 0 770.8C0 770.5 198.3 770.3 443 770.3C687.6 770.3 886 770.5 886 770.8Z" fill="#263238"/>
<path d="M407.56 96.5455V114H405.515L396.003 100.295H395.833V114H393.719V96.5455H395.765L405.31 110.284H405.48V96.5455H407.56ZM416.835 114.273C415.653 114.273 414.616 113.991 413.724 113.429C412.838 112.866 412.145 112.08 411.645 111.068C411.15 110.057 410.903 108.875 410.903 107.523C410.903 106.159 411.15 104.969 411.645 103.952C412.145 102.935 412.838 102.145 413.724 101.582C414.616 101.02 415.653 100.739 416.835 100.739C418.017 100.739 419.051 101.02 419.937 101.582C420.829 102.145 421.522 102.935 422.017 103.952C422.517 104.969 422.767 106.159 422.767 107.523C422.767 108.875 422.517 110.057 422.017 111.068C421.522 112.08 420.829 112.866 419.937 113.429C419.051 113.991 418.017 114.273 416.835 114.273ZM416.835 112.466C417.733 112.466 418.471 112.236 419.051 111.776C419.63 111.315 420.059 110.71 420.338 109.96C420.616 109.21 420.755 108.398 420.755 107.523C420.755 106.648 420.616 105.832 420.338 105.077C420.059 104.321 419.63 103.71 419.051 103.244C418.471 102.778 417.733 102.545 416.835 102.545C415.937 102.545 415.199 102.778 414.619 103.244C414.039 103.71 413.61 104.321 413.332 105.077C413.054 105.832 412.914 106.648 412.914 107.523C412.914 108.398 413.054 109.21 413.332 109.96C413.61 110.71 414.039 111.315 414.619 111.776C415.199 112.236 415.937 112.466 416.835 112.466ZM432.587 118.909V100.909H434.53V102.989H434.769C434.917 102.761 435.121 102.472 435.382 102.119C435.65 101.761 436.03 101.443 436.525 101.165C437.025 100.881 437.701 100.739 438.553 100.739C439.655 100.739 440.627 101.014 441.468 101.565C442.309 102.116 442.965 102.898 443.436 103.909C443.908 104.92 444.144 106.114 444.144 107.489C444.144 108.875 443.908 110.077 443.436 111.094C442.965 112.105 442.311 112.889 441.476 113.446C440.641 113.997 439.678 114.273 438.587 114.273C437.746 114.273 437.073 114.134 436.567 113.855C436.061 113.571 435.672 113.25 435.4 112.892C435.127 112.528 434.917 112.227 434.769 111.989H434.598V118.909H432.587ZM434.564 107.455C434.564 108.443 434.709 109.315 434.999 110.071C435.289 110.821 435.712 111.409 436.269 111.835C436.826 112.256 437.507 112.466 438.314 112.466C439.155 112.466 439.857 112.244 440.419 111.801C440.988 111.352 441.414 110.75 441.698 109.994C441.988 109.233 442.132 108.386 442.132 107.455C442.132 106.534 441.99 105.705 441.706 104.966C441.428 104.222 441.005 103.634 440.436 103.202C439.874 102.764 439.167 102.545 438.314 102.545C437.496 102.545 436.809 102.753 436.252 103.168C435.695 103.577 435.275 104.151 434.99 104.889C434.706 105.622 434.564 106.477 434.564 107.455ZM452.701 114.273C451.439 114.273 450.351 113.994 449.436 113.438C448.527 112.875 447.826 112.091 447.331 111.085C446.843 110.074 446.598 108.898 446.598 107.557C446.598 106.216 446.843 105.034 447.331 104.011C447.826 102.983 448.513 102.182 449.394 101.608C450.28 101.028 451.314 100.739 452.496 100.739C453.178 100.739 453.851 100.852 454.516 101.08C455.181 101.307 455.786 101.676 456.331 102.188C456.877 102.693 457.311 103.364 457.635 104.199C457.959 105.034 458.121 106.062 458.121 107.284V108.136H448.03V106.398H456.076C456.076 105.659 455.928 105 455.632 104.42C455.343 103.841 454.928 103.384 454.388 103.048C453.854 102.713 453.223 102.545 452.496 102.545C451.695 102.545 451.002 102.744 450.417 103.142C449.837 103.534 449.391 104.045 449.078 104.676C448.766 105.307 448.61 105.983 448.61 106.705V107.864C448.61 108.852 448.78 109.69 449.121 110.378C449.468 111.06 449.948 111.58 450.561 111.938C451.175 112.29 451.888 112.466 452.701 112.466C453.229 112.466 453.706 112.392 454.132 112.244C454.564 112.091 454.936 111.864 455.249 111.562C455.561 111.256 455.803 110.875 455.973 110.42L457.917 110.966C457.712 111.625 457.368 112.205 456.885 112.705C456.402 113.199 455.806 113.585 455.096 113.864C454.385 114.136 453.587 114.273 452.701 114.273ZM463.192 106.125V114H461.181V100.909H463.124V102.955H463.294C463.601 102.29 464.067 101.756 464.692 101.352C465.317 100.943 466.124 100.739 467.113 100.739C467.999 100.739 468.775 100.92 469.439 101.284C470.104 101.642 470.621 102.188 470.99 102.92C471.36 103.648 471.544 104.568 471.544 105.682V114H469.533V105.818C469.533 104.79 469.266 103.989 468.732 103.415C468.198 102.835 467.465 102.545 466.533 102.545C465.891 102.545 465.317 102.685 464.811 102.963C464.311 103.241 463.917 103.648 463.627 104.182C463.337 104.716 463.192 105.364 463.192 106.125ZM480.163 114.273C479.072 114.273 478.109 113.997 477.274 113.446C476.439 112.889 475.785 112.105 475.314 111.094C474.842 110.077 474.606 108.875 474.606 107.489C474.606 106.114 474.842 104.92 475.314 103.909C475.785 102.898 476.441 102.116 477.282 101.565C478.123 101.014 479.095 100.739 480.197 100.739C481.049 100.739 481.723 100.881 482.217 101.165C482.717 101.443 483.098 101.761 483.359 102.119C483.626 102.472 483.833 102.761 483.981 102.989H484.152V96.5455H486.163V114H484.22V111.989H483.981C483.833 112.227 483.623 112.528 483.35 112.892C483.078 113.25 482.689 113.571 482.183 113.855C481.677 114.134 481.004 114.273 480.163 114.273ZM480.436 112.466C481.243 112.466 481.924 112.256 482.481 111.835C483.038 111.409 483.461 110.821 483.751 110.071C484.041 109.315 484.186 108.443 484.186 107.455C484.186 106.477 484.044 105.622 483.76 104.889C483.475 104.151 483.055 103.577 482.498 103.168C481.941 102.753 481.254 102.545 480.436 102.545C479.583 102.545 478.873 102.764 478.305 103.202C477.743 103.634 477.319 104.222 477.035 104.966C476.757 105.705 476.618 106.534 476.618 107.455C476.618 108.386 476.76 109.233 477.044 109.994C477.333 110.75 477.76 111.352 478.322 111.801C478.89 112.244 479.595 112.466 480.436 112.466ZM490.126 114V100.909H492.137V114H490.126ZM491.149 98.7273C490.757 98.7273 490.419 98.5938 490.135 98.3267C489.856 98.0597 489.717 97.7386 489.717 97.3636C489.717 96.9886 489.856 96.6676 490.135 96.4006C490.419 96.1335 490.757 96 491.149 96C491.541 96 491.876 96.1335 492.154 96.4006C492.439 96.6676 492.581 96.9886 492.581 97.3636C492.581 97.7386 492.439 98.0597 492.154 98.3267C491.876 98.5938 491.541 98.7273 491.149 98.7273ZM497.833 106.125V114H495.821V100.909H497.765V102.955H497.935C498.242 102.29 498.708 101.756 499.333 101.352C499.958 100.943 500.765 100.739 501.753 100.739C502.64 100.739 503.415 100.92 504.08 101.284C504.745 101.642 505.262 102.188 505.631 102.92C506 103.648 506.185 104.568 506.185 105.682V114H504.174V105.818C504.174 104.79 503.907 103.989 503.373 103.415C502.838 102.835 502.105 102.545 501.174 102.545C500.532 102.545 499.958 102.685 499.452 102.963C498.952 103.241 498.557 103.648 498.267 104.182C497.978 104.716 497.833 105.364 497.833 106.125ZM515.145 119.182C514.173 119.182 513.338 119.057 512.639 118.807C511.94 118.562 511.358 118.239 510.892 117.835C510.431 117.438 510.065 117.011 509.792 116.557L511.395 115.432C511.576 115.67 511.806 115.943 512.085 116.25C512.363 116.562 512.744 116.832 513.227 117.06C513.716 117.293 514.355 117.409 515.145 117.409C516.201 117.409 517.074 117.153 517.761 116.642C518.449 116.131 518.792 115.33 518.792 114.239V111.58H518.622C518.474 111.818 518.264 112.114 517.991 112.466C517.724 112.812 517.338 113.122 516.832 113.395C516.332 113.662 515.656 113.795 514.804 113.795C513.747 113.795 512.798 113.545 511.957 113.045C511.122 112.545 510.46 111.818 509.971 110.864C509.488 109.909 509.247 108.75 509.247 107.386C509.247 106.045 509.483 104.878 509.954 103.884C510.426 102.884 511.082 102.111 511.923 101.565C512.764 101.014 513.735 100.739 514.838 100.739C515.69 100.739 516.366 100.881 516.866 101.165C517.372 101.443 517.758 101.761 518.025 102.119C518.298 102.472 518.508 102.761 518.656 102.989H518.86V100.909H520.804V114.375C520.804 115.5 520.548 116.415 520.037 117.119C519.531 117.83 518.849 118.349 517.991 118.679C517.139 119.014 516.19 119.182 515.145 119.182ZM515.076 111.989C515.883 111.989 516.565 111.804 517.122 111.435C517.679 111.065 518.102 110.534 518.392 109.841C518.681 109.148 518.826 108.318 518.826 107.352C518.826 106.409 518.684 105.577 518.4 104.855C518.116 104.134 517.696 103.568 517.139 103.159C516.582 102.75 515.895 102.545 515.076 102.545C514.224 102.545 513.514 102.761 512.946 103.193C512.383 103.625 511.96 104.205 511.676 104.932C511.397 105.659 511.258 106.466 511.258 107.352C511.258 108.261 511.4 109.065 511.684 109.764C511.974 110.457 512.4 111.003 512.963 111.401C513.531 111.793 514.235 111.989 515.076 111.989ZM536.554 114.273C535.372 114.273 534.335 113.991 533.443 113.429C532.556 112.866 531.863 112.08 531.363 111.068C530.869 110.057 530.622 108.875 530.622 107.523C530.622 106.159 530.869 104.969 531.363 103.952C531.863 102.935 532.556 102.145 533.443 101.582C534.335 101.02 535.372 100.739 536.554 100.739C537.735 100.739 538.77 101.02 539.656 101.582C540.548 102.145 541.241 102.935 541.735 103.952C542.235 104.969 542.485 106.159 542.485 107.523C542.485 108.875 542.235 110.057 541.735 111.068C541.241 112.08 540.548 112.866 539.656 113.429C538.77 113.991 537.735 114.273 536.554 114.273ZM536.554 112.466C537.451 112.466 538.19 112.236 538.77 111.776C539.349 111.315 539.778 110.71 540.056 109.96C540.335 109.21 540.474 108.398 540.474 107.523C540.474 106.648 540.335 105.832 540.056 105.077C539.778 104.321 539.349 103.71 538.77 103.244C538.19 102.778 537.451 102.545 536.554 102.545C535.656 102.545 534.917 102.778 534.338 103.244C533.758 103.71 533.329 104.321 533.051 105.077C532.772 105.832 532.633 106.648 532.633 107.523C532.633 108.398 532.772 109.21 533.051 109.96C533.329 110.71 533.758 111.315 534.338 111.776C534.917 112.236 535.656 112.466 536.554 112.466ZM545.556 114V100.909H547.499V102.886H547.635C547.874 102.239 548.306 101.713 548.931 101.31C549.556 100.906 550.26 100.705 551.044 100.705C551.192 100.705 551.377 100.707 551.598 100.713C551.82 100.719 551.988 100.727 552.101 100.739V102.784C552.033 102.767 551.877 102.741 551.632 102.707C551.394 102.668 551.141 102.648 550.874 102.648C550.238 102.648 549.669 102.781 549.169 103.048C548.675 103.31 548.283 103.673 547.993 104.139C547.709 104.599 547.567 105.125 547.567 105.716V114H545.556ZM384.969 125.545V143H382.958V125.545H384.969ZM392.506 143.307C391.676 143.307 390.923 143.151 390.247 142.838C389.571 142.52 389.034 142.062 388.636 141.466C388.239 140.864 388.04 140.136 388.04 139.284C388.04 138.534 388.188 137.926 388.483 137.46C388.778 136.989 389.173 136.619 389.668 136.352C390.162 136.085 390.707 135.886 391.304 135.756C391.906 135.619 392.511 135.511 393.119 135.432C393.915 135.33 394.56 135.253 395.054 135.202C395.554 135.145 395.918 135.051 396.145 134.92C396.378 134.79 396.494 134.562 396.494 134.239V134.17C396.494 133.33 396.264 132.676 395.804 132.21C395.349 131.744 394.659 131.511 393.733 131.511C392.773 131.511 392.02 131.722 391.474 132.142C390.929 132.562 390.545 133.011 390.324 133.489L388.415 132.807C388.756 132.011 389.21 131.392 389.778 130.949C390.352 130.5 390.977 130.187 391.653 130.011C392.335 129.83 393.006 129.739 393.665 129.739C394.085 129.739 394.568 129.79 395.114 129.892C395.665 129.989 396.196 130.19 396.707 130.497C397.224 130.804 397.653 131.267 397.994 131.886C398.335 132.506 398.506 133.335 398.506 134.375V143H396.494V141.227H396.392C396.256 141.511 396.028 141.815 395.71 142.139C395.392 142.463 394.969 142.739 394.44 142.966C393.912 143.193 393.267 143.307 392.506 143.307ZM392.812 141.5C393.608 141.5 394.278 141.344 394.824 141.031C395.375 140.719 395.79 140.315 396.068 139.821C396.352 139.327 396.494 138.807 396.494 138.261V136.42C396.409 136.523 396.222 136.616 395.932 136.702C395.648 136.781 395.318 136.852 394.943 136.915C394.574 136.972 394.213 137.023 393.861 137.068C393.514 137.108 393.233 137.142 393.017 137.17C392.494 137.239 392.006 137.349 391.551 137.503C391.102 137.651 390.739 137.875 390.46 138.176C390.188 138.472 390.051 138.875 390.051 139.386C390.051 140.085 390.31 140.614 390.827 140.972C391.349 141.324 392.011 141.5 392.812 141.5ZM407.87 129.909V131.614H401.086V129.909H407.87ZM403.063 126.773H405.075V139.25C405.075 139.818 405.157 140.244 405.322 140.528C405.492 140.807 405.708 140.994 405.969 141.091C406.237 141.182 406.518 141.227 406.813 141.227C407.035 141.227 407.217 141.216 407.359 141.193C407.501 141.165 407.614 141.142 407.7 141.125L408.109 142.932C407.972 142.983 407.782 143.034 407.538 143.085C407.293 143.142 406.984 143.17 406.609 143.17C406.04 143.17 405.484 143.048 404.938 142.804C404.398 142.56 403.95 142.188 403.592 141.688C403.239 141.188 403.063 140.557 403.063 139.795V126.773ZM416.244 143.273C414.982 143.273 413.894 142.994 412.979 142.438C412.07 141.875 411.369 141.091 410.874 140.085C410.386 139.074 410.141 137.898 410.141 136.557C410.141 135.216 410.386 134.034 410.874 133.011C411.369 131.983 412.056 131.182 412.937 130.608C413.823 130.028 414.857 129.739 416.039 129.739C416.721 129.739 417.394 129.852 418.059 130.08C418.724 130.307 419.329 130.676 419.874 131.188C420.42 131.693 420.854 132.364 421.178 133.199C421.502 134.034 421.664 135.062 421.664 136.284V137.136H411.573V135.398H419.619C419.619 134.659 419.471 134 419.175 133.42C418.886 132.841 418.471 132.384 417.931 132.048C417.397 131.713 416.766 131.545 416.039 131.545C415.238 131.545 414.545 131.744 413.96 132.142C413.38 132.534 412.934 133.045 412.621 133.676C412.309 134.307 412.153 134.983 412.153 135.705V136.864C412.153 137.852 412.323 138.69 412.664 139.378C413.011 140.06 413.491 140.58 414.104 140.938C414.718 141.29 415.431 141.466 416.244 141.466C416.772 141.466 417.249 141.392 417.675 141.244C418.107 141.091 418.479 140.864 418.792 140.562C419.104 140.256 419.346 139.875 419.516 139.42L421.46 139.966C421.255 140.625 420.911 141.205 420.428 141.705C419.945 142.199 419.349 142.585 418.638 142.864C417.928 143.136 417.13 143.273 416.244 143.273ZM437.167 129.909V131.614H430.383V129.909H437.167ZM432.36 126.773H434.371V139.25C434.371 139.818 434.454 140.244 434.619 140.528C434.789 140.807 435.005 140.994 435.266 141.091C435.533 141.182 435.815 141.227 436.11 141.227C436.332 141.227 436.513 141.216 436.656 141.193C436.798 141.165 436.911 141.142 436.996 141.125L437.406 142.932C437.269 142.983 437.079 143.034 436.835 143.085C436.59 143.142 436.281 143.17 435.906 143.17C435.337 143.17 434.781 143.048 434.235 142.804C433.695 142.56 433.246 142.188 432.888 141.688C432.536 141.188 432.36 140.557 432.36 139.795V126.773ZM440.192 143V129.909H442.204V143H440.192ZM441.215 127.727C440.823 127.727 440.485 127.594 440.201 127.327C439.923 127.06 439.783 126.739 439.783 126.364C439.783 125.989 439.923 125.668 440.201 125.401C440.485 125.134 440.823 125 441.215 125C441.607 125 441.942 125.134 442.221 125.401C442.505 125.668 442.647 125.989 442.647 126.364C442.647 126.739 442.505 127.06 442.221 127.327C441.942 127.594 441.607 127.727 441.215 127.727ZM451.206 143.273C449.979 143.273 448.922 142.983 448.036 142.403C447.149 141.824 446.467 141.026 445.99 140.009C445.513 138.991 445.274 137.83 445.274 136.523C445.274 135.193 445.518 134.02 446.007 133.003C446.501 131.98 447.189 131.182 448.07 130.608C448.956 130.028 449.99 129.739 451.172 129.739C452.092 129.739 452.922 129.909 453.661 130.25C454.399 130.591 455.004 131.068 455.476 131.682C455.947 132.295 456.24 133.011 456.354 133.83H454.342C454.189 133.233 453.848 132.705 453.32 132.244C452.797 131.778 452.092 131.545 451.206 131.545C450.422 131.545 449.734 131.75 449.143 132.159C448.558 132.562 448.101 133.134 447.771 133.872C447.447 134.605 447.286 135.466 447.286 136.455C447.286 137.466 447.445 138.347 447.763 139.097C448.087 139.847 448.541 140.429 449.126 140.844C449.717 141.259 450.411 141.466 451.206 141.466C451.729 141.466 452.203 141.375 452.629 141.193C453.055 141.011 453.416 140.75 453.712 140.409C454.007 140.068 454.217 139.659 454.342 139.182H456.354C456.24 139.955 455.959 140.651 455.51 141.27C455.067 141.884 454.479 142.372 453.746 142.736C453.018 143.094 452.172 143.273 451.206 143.273ZM461.169 138.227L461.135 135.739H461.544L467.271 129.909H469.76L463.658 136.08H463.487L461.169 138.227ZM459.294 143V125.545H461.305V143H459.294ZM467.612 143L462.499 136.523L463.93 135.125L470.169 143H467.612ZM477.298 143.273C476.037 143.273 474.949 142.994 474.034 142.438C473.125 141.875 472.423 141.091 471.929 140.085C471.44 139.074 471.196 137.898 471.196 136.557C471.196 135.216 471.44 134.034 471.929 133.011C472.423 131.983 473.111 131.182 473.991 130.608C474.878 130.028 475.912 129.739 477.094 129.739C477.776 129.739 478.449 129.852 479.114 130.08C479.778 130.307 480.384 130.676 480.929 131.188C481.474 131.693 481.909 132.364 482.233 133.199C482.557 134.034 482.719 135.062 482.719 136.284V137.136H472.628V135.398H480.673C480.673 134.659 480.526 134 480.23 133.42C479.94 132.841 479.526 132.384 478.986 132.048C478.452 131.713 477.821 131.545 477.094 131.545C476.293 131.545 475.599 131.744 475.014 132.142C474.435 132.534 473.989 133.045 473.676 133.676C473.364 134.307 473.207 134.983 473.207 135.705V136.864C473.207 137.852 473.378 138.69 473.719 139.378C474.065 140.06 474.545 140.58 475.159 140.938C475.773 141.29 476.486 141.466 477.298 141.466C477.827 141.466 478.304 141.392 478.73 141.244C479.162 141.091 479.534 140.864 479.847 140.562C480.159 140.256 480.401 139.875 480.571 139.42L482.514 139.966C482.31 140.625 481.966 141.205 481.483 141.705C481 142.199 480.403 142.585 479.693 142.864C478.983 143.136 478.185 143.273 477.298 143.273ZM491.472 129.909V131.614H484.688V129.909H491.472ZM486.665 126.773H488.676V139.25C488.676 139.818 488.759 140.244 488.923 140.528C489.094 140.807 489.31 140.994 489.571 141.091C489.838 141.182 490.119 141.227 490.415 141.227C490.636 141.227 490.818 141.216 490.96 141.193C491.102 141.165 491.216 141.142 491.301 141.125L491.71 142.932C491.574 142.983 491.384 143.034 491.139 143.085C490.895 143.142 490.585 143.17 490.21 143.17C489.642 143.17 489.085 143.048 488.54 142.804C488 142.56 487.551 142.188 487.193 141.688C486.841 141.188 486.665 140.557 486.665 139.795V126.773ZM503.259 135.125V143H501.247V125.545H503.259V131.955H503.429C503.736 131.278 504.196 130.741 504.81 130.344C505.429 129.94 506.253 129.739 507.281 129.739C508.173 129.739 508.955 129.918 509.625 130.276C510.295 130.628 510.815 131.17 511.185 131.903C511.56 132.631 511.747 133.557 511.747 134.682V143H509.736V134.818C509.736 133.778 509.466 132.974 508.926 132.406C508.392 131.832 507.651 131.545 506.702 131.545C506.043 131.545 505.452 131.685 504.929 131.963C504.412 132.241 504.003 132.648 503.702 133.182C503.406 133.716 503.259 134.364 503.259 135.125ZM520.915 143.273C519.654 143.273 518.566 142.994 517.651 142.438C516.742 141.875 516.04 141.091 515.546 140.085C515.058 139.074 514.813 137.898 514.813 136.557C514.813 135.216 515.058 134.034 515.546 133.011C516.04 131.983 516.728 131.182 517.609 130.608C518.495 130.028 519.529 129.739 520.711 129.739C521.393 129.739 522.066 129.852 522.731 130.08C523.396 130.307 524.001 130.676 524.546 131.188C525.092 131.693 525.526 132.364 525.85 133.199C526.174 134.034 526.336 135.062 526.336 136.284V137.136H516.245V135.398H524.29C524.29 134.659 524.143 134 523.847 133.42C523.558 132.841 523.143 132.384 522.603 132.048C522.069 131.713 521.438 131.545 520.711 131.545C519.91 131.545 519.217 131.744 518.631 132.142C518.052 132.534 517.606 133.045 517.293 133.676C516.981 134.307 516.825 134.983 516.825 135.705V136.864C516.825 137.852 516.995 138.69 517.336 139.378C517.683 140.06 518.163 140.58 518.776 140.938C519.39 141.29 520.103 141.466 520.915 141.466C521.444 141.466 521.921 141.392 522.347 141.244C522.779 141.091 523.151 140.864 523.464 140.562C523.776 140.256 524.018 139.875 524.188 139.42L526.131 139.966C525.927 140.625 525.583 141.205 525.1 141.705C524.617 142.199 524.021 142.585 523.31 142.864C522.6 143.136 521.802 143.273 520.915 143.273ZM529.396 143V129.909H531.339V131.886H531.475C531.714 131.239 532.146 130.713 532.771 130.31C533.396 129.906 534.1 129.705 534.884 129.705C535.032 129.705 535.217 129.707 535.438 129.713C535.66 129.719 535.827 129.727 535.941 129.739V131.784C535.873 131.767 535.717 131.741 535.472 131.707C535.234 131.668 534.981 131.648 534.714 131.648C534.077 131.648 533.509 131.781 533.009 132.048C532.515 132.31 532.123 132.673 531.833 133.139C531.549 133.599 531.407 134.125 531.407 134.716V143H529.396ZM543.415 143.273C542.154 143.273 541.066 142.994 540.151 142.438C539.242 141.875 538.54 141.091 538.046 140.085C537.558 139.074 537.313 137.898 537.313 136.557C537.313 135.216 537.558 134.034 538.046 133.011C538.54 131.983 539.228 131.182 540.109 130.608C540.995 130.028 542.029 129.739 543.211 129.739C543.893 129.739 544.566 129.852 545.231 130.08C545.896 130.307 546.501 130.676 547.046 131.188C547.592 131.693 548.026 132.364 548.35 133.199C548.674 134.034 548.836 135.062 548.836 136.284V137.136H538.745V135.398H546.79C546.79 134.659 546.643 134 546.347 133.42C546.058 132.841 545.643 132.384 545.103 132.048C544.569 131.713 543.938 131.545 543.211 131.545C542.41 131.545 541.717 131.744 541.131 132.142C540.552 132.534 540.106 133.045 539.793 133.676C539.481 134.307 539.325 134.983 539.325 135.705V136.864C539.325 137.852 539.495 138.69 539.836 139.378C540.183 140.06 540.663 140.58 541.276 140.938C541.89 141.29 542.603 141.466 543.415 141.466C543.944 141.466 544.421 141.392 544.847 141.244C545.279 141.091 545.651 140.864 545.964 140.562C546.276 140.256 546.518 139.875 546.688 139.42L548.631 139.966C548.427 140.625 548.083 141.205 547.6 141.705C547.117 142.199 546.521 142.585 545.81 142.864C545.1 143.136 544.302 143.273 543.415 143.273ZM553.362 143.136C552.941 143.136 552.58 142.986 552.279 142.685C551.978 142.384 551.827 142.023 551.827 141.602C551.827 141.182 551.978 140.821 552.279 140.52C552.58 140.219 552.941 140.068 553.362 140.068C553.782 140.068 554.143 140.219 554.444 140.52C554.745 140.821 554.896 141.182 554.896 141.602C554.896 141.881 554.825 142.136 554.683 142.369C554.546 142.602 554.362 142.79 554.129 142.932C553.901 143.068 553.646 143.136 553.362 143.136ZM559.971 143.136C559.55 143.136 559.19 142.986 558.888 142.685C558.587 142.384 558.437 142.023 558.437 141.602C558.437 141.182 558.587 140.821 558.888 140.52C559.19 140.219 559.55 140.068 559.971 140.068C560.391 140.068 560.752 140.219 561.053 140.52C561.354 140.821 561.505 141.182 561.505 141.602C561.505 141.881 561.434 142.136 561.292 142.369C561.156 142.602 560.971 142.79 560.738 142.932C560.511 143.068 560.255 143.136 559.971 143.136ZM566.58 143.136C566.16 143.136 565.799 142.986 565.498 142.685C565.197 142.384 565.046 142.023 565.046 141.602C565.046 141.182 565.197 140.821 565.498 140.52C565.799 140.219 566.16 140.068 566.58 140.068C567.001 140.068 567.362 140.219 567.663 140.52C567.964 140.821 568.114 141.182 568.114 141.602C568.114 141.881 568.043 142.136 567.901 142.369C567.765 142.602 567.58 142.79 567.347 142.932C567.12 143.068 566.864 143.136 566.58 143.136Z" fill="black"/>
</svg>
